<svg xmlns="http://www.w3.org/2000/svg" fill="currentColor" viewBox="0 0 16 16">
    <path d="M8,.2C3.6.2,0,3.8,0,8.2s2.3,6.6,5.4,7.6c.4,0,.6-.1.6-.4v-1.5c-2,.4-2.5-.5-2.7-.9,0-.2-.5-.9-.8-1.1-.3-.1-.7-.5,0-.6.7,0,1.1.6,1.2.8.7,1.2,1.8.9,2.3.6,0-.5.3-.9.5-1.1-1.8-.2-3.7-.9-3.7-3.9s.3-1.6.8-2.2c0-.2-.3-1,0-2.1,0,0,.7-.1,2.2.9.7-.2,1.3-.2,2-.2s1.4,0,2,.2c1.6-1,2.2-.8,2.2-.8.4,1.1.1,1.9.1,2.1.5.6.8,1.2.8,2.2,0,3.1-1.9,3.8-3.6,3.9.3.2.6.8.6,1.5v2.2c0,.2.1.4.6.4,3.2-1.1,5.4-4.1,5.4-7.6S12.4.2,8,.2Z"/>
</svg>
