<svg xmlns="http://www.w3.org/2000/svg" viewBox="0 0 1280 640">
    <linearGradient id="A" gradientUnits="userSpaceOnUse" x1="166.308" y1="-153.692" x2="1129.415" y2="809.416">
        <stop offset="0" stop-color="#3499ff"/>
        <stop offset="1" stop-color="#3a3985"/>
    </linearGradient>
    <path fill="url(#A)" d="M0,0h1280v640H0V0z"/>
    <path opacity=".2"
          d="M299.1 236.3c-1-1.5-2.3-2.3-4.2-2.3H216c-1.8 0-3.2 1-4.2 2.8L174.7 311c-1 1.5-.5 3.2 0 4.7 1 1.5 2.3 2.3 4.2 2.3h25.6l-39.1 86.4c-1 1.8-.5 4.2 1.5 5.5 1 .5 1.8 1 2.8 1s2.3-.5 2.8-1L284 317c1.5-1.5 1.8-3.2 1.5-5.2-.5-2.3-2.3-3.7-4.2-3.7h-28.4l45.9-66.8c.7-1.3 1.2-3.3.3-5h0 0z"/>
    <linearGradient id="B" gradientUnits="userSpaceOnUse" x1="160.1" y1="317.6" x2="294.757" y2="317.6">
        <stop offset="0" stop-color="#ffcf1b"/>
        <stop offset="1" stop-color="#ff881b"/>
    </linearGradient>
    <path fill="url(#B)" d="M294.2 231.4c-1-1.5-2.3-2.3-4.2-2.3h-78.8c-1.8 0-3.2 1-4.2 2.8l-37.1 74.3c-1 1.5-.5 3.2 0 4.7 1 1.5 2.3 2.3 4.2 2.3h25.6l-39.1 86.4c-1 1.8-.5 4.2 1.5 5.5 1 .5 1.8 1 2.8 1s2.3-.5 2.8-1l111.5-92.9c1.5-1.5 1.8-3.2 1.5-5.2-.5-2.3-2.3-3.7-4.2-3.7H248l45.9-66.8c.8-1.4 1.3-3.3.3-5.1h0 0z"/>
    <path opacity=".2" d="M345.8 386l-1-2.5h-8.2l-1 2.6c-.4 1-.7 1.7-1 2-.3.4-.7.5-1.3.5-.5 0-1-.2-1.4-.6s-.6-.8-.6-1.3c0-.3 0-.6.1-.9s.2-.7.5-1.2l5.2-13.1c.1-.4.3-.8.5-1.4.2-.5.4-1 .7-1.3a2.36 2.36 0 0 1 .9-.8c.4-.2.9-.3 1.4-.3.6 0 1 .1 1.4.3a2.36 2.36 0 0 1 .9.8c.2.3.4.7.6 1.1a9.12 9.12 0 0 1 .6 1.6l5.3 13.1c.4 1 .6 1.7.6 2.2s-.2.9-.6 1.3-.9.6-1.4.6c-.3 0-.6-.1-.8-.2s-.4-.3-.6-.5-.3-.5-.5-.9c0-.4-.2-.8-.3-1.1zm-8.1-5.6h6l-3-8.3-3 8.3zm24.6-4.8l2.5 8.4 2.2-7.8.5-1.7c.1-.3.3-.6.6-.9s.8-.4 1.3-.4c.6 0 1 .1 1.3.4s.5.6.7.9.3.9.5 1.6l2.2 7.8 2.5-8.4.4-1.3c.1-.3.3-.5.5-.7s.6-.3 1-.3c.5 0 .8.2 1.2.5.3.3.5.7.5 1.1s-.1 1-.4 1.8l-3.1 9-.6 1.7c-.1.4-.4.6-.7.9s-.8.4-1.3.4c-.6 0-1-.1-1.3-.4s-.6-.6-.7-1-.3-1-.5-1.6l-2.2-7.3-2.1 7.3c-.3 1-.6 1.8-.9 2.3s-.9.8-1.7.8c-.4 0-.8-.1-1.1-.2s-.5-.4-.7-.7-.4-.7-.5-1.1-.3-.7-.3-1l-3-9c-.3-.8-.5-1.4-.5-1.8s.2-.8.5-1.1.7-.5 1.2-.5c.6 0 1 .2 1.3.5.2.4.5 1 .7 1.8zm30.8 6.3h-7.4c0 .9.2 1.6.5 2.3s.8 1.1 1.3 1.5 1.2.5 1.8.5a3.73 3.73 0 0 0 1.2-.2c.3-.1.7-.3 1.1-.5l1-.7 1.1-1c.2-.2.5-.2.8-.2.4 0 .7.1.9.3s.4.5.4.9c0 .3-.1.7-.4 1.2s-.7.9-1.2 1.3-1.2.8-2 1c-.8.3-1.7.4-2.8.4-2.4 0-4.3-.7-5.6-2.1s-2-3.3-2-5.6c0-1.1.2-2.1.5-3.1s.8-1.8 1.4-2.4c.6-.7 1.4-1.2 2.3-1.6s2-.5 3.1-.5c1.5 0 2.7.3 3.8.9s1.8 1.4 2.4 2.4c.5 1 .8 2 .8 3 0 .9-.3 1.6-.8 1.8s-1.2.4-2.2.4zm-7.4-2.2h6.8c-.1-1.3-.4-2.3-1-2.9a3.31 3.31 0 0 0-2.4-1c-.9 0-1.7.3-2.3 1s-1 1.7-1.1 2.9zm16.8-9.8v5.8c.7-.7 1.4-1.3 2.2-1.7.7-.4 1.6-.6 2.7-.6 1.3 0 2.3.3 3.3.9s1.7 1.5 2.2 2.6.8 2.5.8 4c0 1.1-.1 2.2-.4 3.1-.3 1-.7 1.8-1.3 2.5s-1.2 1.2-2 1.6-1.7.6-2.6.6c-.6 0-1.1-.1-1.6-.2s-.9-.3-1.3-.5-.7-.5-.9-.7l-1-1.1v.4c0 .7-.2 1.2-.5 1.6s-.8.5-1.3.5-1-.2-1.3-.5c-.3-.4-.5-.9-.5-1.6V370c0-.8.2-1.3.5-1.7s.7-.6 1.3-.6 1 .2 1.3.6c.2.3.4.9.4 1.6zm.1 11.1c0 1.5.3 2.7 1 3.5s1.6 1.2 2.7 1.2a2.98 2.98 0 0 0 2.4-1.2c.7-.8 1-2 1-3.5 0-1-.1-1.8-.4-2.6s-.7-1.3-1.2-1.7-1.1-.6-1.8-.6-1.4.2-1.9.6c-.6.4-1 1-1.3 1.7s-.5 1.6-.5 2.6zm31.4 5.5v-.4c-.5.6-1 1.1-1.5 1.4-.5.4-1 .6-1.6.8s-1.2.3-1.9.3a5.42 5.42 0 0 1-2.5-.6c-.8-.4-1.4-.9-2-1.6s-1-1.5-1.3-2.5-.4-2-.4-3.1c0-2.4.6-4.2 1.7-5.5s2.7-2 4.5-2c1.1 0 2 .2 2.7.6s1.5.9 2.2 1.7V370c0-.8.2-1.4.5-1.8s.7-.6 1.3-.6 1 .2 1.3.5c.3.4.5.9.5 1.6v16.6c0 .7-.2 1.3-.5 1.6s-.8.5-1.3.5-.9-.2-1.3-.6c-.2-.1-.4-.6-.4-1.3zm-7.4-5.6c0 1 .2 1.9.5 2.6s.8 1.3 1.3 1.6c.6.4 1.2.5 1.8.5.7 0 1.3-.2 1.8-.5s1-.9 1.3-1.6.5-1.6.5-2.7c0-1-.2-1.9-.5-2.6s-.8-1.3-1.3-1.7-1.2-.6-1.8-.6c-.7 0-1.3.2-1.8.6s-1 1-1.3 1.7-.5 1.8-.5 2.7zm24.3 5.6c-.9.7-1.8 1.2-2.6 1.6s-1.8.5-2.9.5c-1 0-1.8-.2-2.5-.6s-1.3-.9-1.7-1.6-.6-1.4-.6-2.1c0-1 .3-1.9 1-2.6s1.5-1.2 2.7-1.5c.2-.1.8-.2 1.8-.4l2.4-.5 2.2-.6c0-1-.2-1.7-.6-2.2s-1.1-.7-2.2-.7c-1 0-1.7.1-2.2.4s-.9.7-1.2 1.2l-.7 1.1c-.1.2-.4.3-.9.3-.4 0-.8-.1-1.1-.4s-.5-.6-.5-1c0-.7.2-1.3.7-1.9s1.2-1.1 2.2-1.5 2.2-.6 3.7-.6c1.7 0 3 .2 3.9.6s1.6 1 2 1.9c.4.8.6 2 .6 3.4v2.2 2.1c0 .7.1 1.4.4 2.2l.4 1.5c0 .4-.2.7-.5 1.1-.4.3-.8.5-1.2.5s-.8-.2-1.1-.5c-.7-.7-1.1-1.2-1.5-1.9zm-.3-5.5c-.6.2-1.4.4-2.4.6l-2.2.5c-.4.1-.8.3-1.2.6s-.6.7-.6 1.3.2 1.1.6 1.5 1 .6 1.7.6 1.4-.2 2.1-.5 1.1-.7 1.4-1.3.5-1.5.5-2.8v-.5zm19.7 2.7c0 1-.3 1.9-.8 2.7-.5.7-1.3 1.3-2.2 1.7-1 .4-2.2.6-3.6.6s-2.5-.2-3.5-.6-1.7-.9-2.1-1.6c-.5-.6-.7-1.2-.7-1.9 0-.4.1-.8.4-1.1s.7-.4 1.1-.4.7.1.9.3.4.5.6.8c.4.7.8 1.2 1.4 1.5.5.3 1.3.5 2.2.5.8 0 1.4-.2 1.9-.5s.7-.7.7-1.2c0-.7-.3-1.1-.8-1.4s-1.3-.6-2.5-.9c-1.3-.3-2.4-.7-3.2-1-.8-.4-1.5-.8-2-1.4s-.7-1.3-.7-2.1.2-1.5.7-2.1c.5-.7 1.1-1.2 2-1.6s1.9-.6 3.2-.6c1 0 1.9.1 2.6.3a6.78 6.78 0 0 1 1.9.8c.5.3.9.7 1.2 1.1a1.92 1.92 0 0 1 .4 1.2c0 .4-.1.8-.4 1.1s-.7.4-1.2.4a1.69 1.69 0 0 1-1-.3c-.3-.2-.6-.6-.9-1s-.6-.7-1-.9-.9-.3-1.6-.3-1.2.1-1.7.4-.7.7-.7 1.1.2.7.5 1 .8.5 1.3.6c.6.2 1.3.4 2.3.6 1.2.3 2.1.6 2.9 1s1.3.9 1.7 1.4c.5.5.7 1.1.7 1.8zm6.8-13.7v5.6c.5-.6.9-1 1.4-1.3s1-.6 1.5-.7c.6-.2 1.1-.2 1.8-.2 1 0 1.8.2 2.5.6s1.3 1 1.7 1.8c.3.5.4 1 .5 1.5.1.6.1 1.2.1 1.9v7.2c0 .8-.2 1.3-.5 1.7s-.8.6-1.4.6c-1.2 0-1.9-.8-1.9-2.3V380c0-1.2-.2-2.1-.5-2.8-.4-.6-1-1-2-1-.7 0-1.3.2-1.8.6s-.9.9-1.2 1.6c-.2.6-.3 1.6-.3 3v5c0 .7-.2 1.3-.5 1.7s-.8.6-1.4.6c-1.2 0-1.9-.8-1.9-2.3V370c0-.8.2-1.3.5-1.7s.8-.6 1.4-.6 1.1.2 1.4.6c.5.4.6.9.6 1.7zm16.9-.1v5.8c.7-.7 1.4-1.3 2.2-1.7.7-.4 1.6-.6 2.7-.6 1.3 0 2.3.3 3.3.9s1.7 1.5 2.2 2.6.8 2.5.8 4c0 1.1-.1 2.2-.4 3.1-.3 1-.7 1.8-1.3 2.5s-1.2 1.2-2 1.6-1.7.6-2.6.6c-.6 0-1.1-.1-1.6-.2s-.9-.3-1.3-.5-.7-.5-.9-.7c-.3-.2-.6-.6-1-1.1v.4c0 .7-.2 1.2-.5 1.6s-.8.5-1.3.5-1-.2-1.3-.5c-.3-.4-.5-.9-.5-1.6V370c0-.8.2-1.3.5-1.7s.7-.6 1.3-.6 1 .2 1.3.6.4.9.4 1.6zm.2 11.1c0 1.5.3 2.7 1 3.5s1.6 1.2 2.7 1.2a2.98 2.98 0 0 0 2.4-1.2c.7-.8 1-2 1-3.5 0-1-.1-1.8-.4-2.6s-.7-1.3-1.2-1.7-1.1-.6-1.8-.6-1.4.2-1.9.6-1 1-1.3 1.7c-.4.7-.5 1.6-.5 2.6zm28.1 0a10.07 10.07 0 0 1-.5 3.1c-.3.9-.9 1.8-1.5 2.4-.7.7-1.5 1.2-2.4 1.6s-2 .5-3.1.5-2.2-.2-3.1-.6-1.7-.9-2.4-1.6a6.08 6.08 0 0 1-1.5-2.4 10.07 10.07 0 0 1-.5-3.1 10.07 10.07 0 0 1 .5-3.1c.3-.9.9-1.8 1.5-2.4a6.74 6.74 0 0 1 2.4-1.6c.9-.4 2-.5 3.1-.5s2.2.2 3.1.6 1.7.9 2.4 1.6a6.08 6.08 0 0 1 1.5 2.4c.3.9.5 1.9.5 3.1zm-3.8 0c0-1.5-.3-2.7-1-3.6s-1.6-1.3-2.7-1.3c-.7 0-1.4.2-1.9.6s-1 .9-1.3 1.7-.5 1.6-.5 2.6.1 1.8.4 2.6c.3.7.7 1.3 1.3 1.7s1.2.6 2 .6c1.1 0 2-.4 2.7-1.3s1-2.1 1-3.6zm16.3 5.5c-.9.7-1.8 1.2-2.6 1.6s-1.8.5-2.9.5c-1 0-1.8-.2-2.5-.6s-1.3-.9-1.7-1.6-.6-1.4-.6-2.1c0-1 .3-1.9 1-2.6s1.5-1.2 2.7-1.5c.2-.1.8-.2 1.8-.4l2.4-.5 2.2-.6c0-1-.2-1.7-.6-2.2s-1.1-.7-2.2-.7c-1 0-1.7.1-2.2.4s-.9.7-1.2 1.2l-.7 1.1c-.1.2-.4.3-.9.3-.4 0-.8-.1-1.1-.4s-.5-.6-.5-1c0-.7.2-1.3.7-1.9s1.2-1.1 2.2-1.5 2.2-.6 3.7-.6c1.7 0 3 .2 3.9.6s1.6 1 2 1.9c.4.8.6 2 .6 3.4v2.2 2.1c0 .7.1 1.4.4 2.2l.4 1.5c0 .4-.2.7-.5 1.1-.4.3-.8.5-1.2.5s-.8-.2-1.1-.5c-.7-.7-1.1-1.2-1.5-1.9zm-.3-5.5c-.6.2-1.4.4-2.4.6l-2.2.5c-.4.1-.8.3-1.2.6s-.6.7-.6 1.3.2 1.1.6 1.5 1 .6 1.7.6 1.4-.2 2.1-.5c.6-.3 1.1-.7 1.4-1.3s.5-1.5.5-2.8v-.5zm11.3 2.2v3.1c0 .8-.2 1.3-.5 1.7-.4.4-.8.6-1.4.6-.5 0-1-.2-1.3-.6s-.5-1-.5-1.7v-10.5c0-1.7.6-2.5 1.8-2.5.6 0 1.1.2 1.4.6s.4 1 .5 1.8c.5-.8.9-1.4 1.4-1.8s1.1-.6 1.9-.6 1.6.2 2.3.6 1.1.9 1.1 1.6c0 .5-.2.8-.5 1.1s-.7.4-1 .4c-.1 0-.5-.1-1-.3s-1-.3-1.4-.3c-.6 0-1 .1-1.4.4a3.22 3.22 0 0 0-.8 1.3c-.2.6-.3 1.2-.4 2-.2 1-.2 1.9-.2 3.1zm18.2 3.3v-.4c-.5.6-1 1.1-1.5 1.4-.5.4-1 .6-1.6.8s-1.2.3-1.9.3a5.42 5.42 0 0 1-2.5-.6c-.8-.4-1.4-.9-2-1.6s-1-1.5-1.3-2.5-.4-2-.4-3.1c0-2.4.6-4.2 1.7-5.5s2.7-2 4.5-2c1.1 0 2 .2 2.7.6s1.5.9 2.2 1.7V370c0-.8.2-1.4.5-1.8s.7-.6 1.3-.6 1 .2 1.3.5c.3.4.5.9.5 1.6v16.6c0 .7-.2 1.3-.5 1.6-.3.4-.8.5-1.3.5s-.9-.2-1.3-.6c-.2-.1-.4-.6-.4-1.3zm-7.4-5.6c0 1 .2 1.9.5 2.6s.8 1.3 1.3 1.6c.6.4 1.2.5 1.8.5.7 0 1.3-.2 1.8-.5s1-.9 1.3-1.6.5-1.6.5-2.7c0-1-.2-1.9-.5-2.6s-.8-1.3-1.3-1.7-1.2-.6-1.8-.6c-.7 0-1.3.2-1.8.6s-1 1-1.3 1.7-.5 1.8-.5 2.7zm21.5-7.3h.9v-1.1c0-1.2.1-2.1.4-2.8s.8-1.2 1.5-1.5 1.7-.5 2.9-.5c2.2 0 3.3.5 3.3 1.6 0 .3-.1.6-.3.9-.2.2-.5.4-.8.4-.1 0-.4 0-.8-.1s-.7-.1-.9-.1c-.7 0-1.1.2-1.3.6s-.3 1-.3 1.7v.9h.9c1.4 0 2.2.4 2.2 1.3 0 .6-.2 1-.6 1.2s-.9.2-1.6.2h-.9v10c0 .7-.2 1.3-.5 1.7s-.8.6-1.4.6c-.5 0-1-.2-1.3-.6s-.5-1-.5-1.7v-10h-1c-.6 0-1-.1-1.3-.4s-.5-.6-.5-1c0-.8.6-1.3 1.9-1.3zm23.4 7.4a10.07 10.07 0 0 1-.5 3.1c-.3.9-.9 1.8-1.5 2.4-.7.7-1.5 1.2-2.4 1.6s-2 .5-3.1.5-2.2-.2-3.1-.6-1.7-.9-2.4-1.6a6.08 6.08 0 0 1-1.5-2.4 10.07 10.07 0 0 1-.5-3.1 10.07 10.07 0 0 1 .5-3.1c.3-.9.9-1.8 1.5-2.4a6.74 6.74 0 0 1 2.4-1.6c.9-.4 2-.5 3.1-.5s2.2.2 3.1.6 1.7.9 2.4 1.6a6.08 6.08 0 0 1 1.5 2.4c.4.9.5 1.9.5 3.1zm-3.7 0c0-1.5-.3-2.7-1-3.6s-1.6-1.3-2.7-1.3c-.7 0-1.4.2-1.9.6-.6.4-1 .9-1.3 1.7s-.5 1.6-.5 2.6.1 1.8.4 2.6c.3.7.7 1.3 1.3 1.7s1.2.6 2 .6c1.1 0 2-.4 2.7-1.3.6-.9 1-2.1 1-3.6zm10.4 2.2v3.1c0 .8-.2 1.3-.5 1.7-.4.4-.8.6-1.4.6-.5 0-1-.2-1.3-.6s-.5-1-.5-1.7v-10.5c0-1.7.6-2.5 1.8-2.5.6 0 1.1.2 1.4.6s.4 1 .5 1.8c.5-.8.9-1.4 1.4-1.8s1.1-.6 1.9-.6 1.6.2 2.3.6 1.1.9 1.1 1.6c0 .5-.2.8-.5 1.1s-.7.4-1 .4c-.1 0-.5-.1-1-.3s-1-.3-1.4-.3c-.6 0-1 .1-1.4.4a3.22 3.22 0 0 0-.8 1.3c-.2.6-.3 1.2-.4 2l-.2 3.1zm19.2 5.9l.3-.8-4.6-11.7c-.3-.7-.4-1.2-.4-1.5s.1-.6.2-.9c.2-.3.4-.5.7-.7s.6-.2.9-.2c.5 0 1 .2 1.2.5s.5.8.7 1.5l3.2 9.3 3-8.6c.2-.7.5-1.2.6-1.6.2-.4.4-.7.6-.8s.5-.2.9-.2c.3 0 .6.1.8.2.3.2.5.4.6.6.1.3.2.5.2.8 0 .2-.1.4-.2.7l-.3 1-4.9 12.9c-.4 1.1-.8 2-1.2 2.7s-.9 1.1-1.6 1.5c-.7.3-1.6.5-2.7.5s-1.9-.1-2.5-.4c-.6-.2-.8-.7-.8-1.3 0-.4.1-.8.4-1s.7-.4 1.2-.4c.2 0 .4 0 .6.1s.4.1.6.1c.4 0 .8-.1 1-.2s.5-.4.7-.7.6-.8.8-1.4zM653 381a10.07 10.07 0 0 1-.5 3.1c-.3.9-.9 1.8-1.5 2.4-.7.7-1.5 1.2-2.4 1.6s-2 .5-3.1.5-2.2-.2-3.1-.6-1.7-.9-2.4-1.6a6.08 6.08 0 0 1-1.5-2.4 10.07 10.07 0 0 1-.5-3.1 10.07 10.07 0 0 1 .5-3.1c.3-.9.9-1.8 1.5-2.4s1.4-1.2 2.4-1.6c.9-.4 2-.5 3.1-.5s2.2.2 3.1.6 1.7.9 2.4 1.6a6.08 6.08 0 0 1 1.5 2.4c.3.9.5 1.9.5 3.1zm-3.8 0c0-1.5-.3-2.7-1-3.6s-1.6-1.3-2.7-1.3c-.7 0-1.4.2-1.9.6s-1 .9-1.3 1.7c-.3.7-.5 1.6-.5 2.6s.1 1.8.4 2.6c.3.7.7 1.3 1.3 1.7s1.2.6 2 .6c1.1 0 2-.4 2.7-1.3s1-2.1 1-3.6zm16.5 5.5v-.5c-.5.6-.9 1-1.4 1.4s-1 .7-1.6.9-1.3.3-2 .3c-.9 0-1.7-.2-2.4-.6s-1.3-.9-1.7-1.6c-.5-.8-.7-1.9-.7-3.4v-7.5c0-.8.2-1.3.5-1.7s.8-.6 1.4-.6 1 .2 1.4.6c.3.4.5.9.5 1.7v6c0 .9.1 1.6.2 2.2s.4 1.1.8 1.4.9.5 1.6.5c.6 0 1.2-.2 1.8-.6s1-.9 1.2-1.5c.2-.5.3-1.7.3-3.5v-4.6c0-.7.2-1.3.5-1.7s.8-.6 1.4-.6 1 .2 1.4.6.5.9.5 1.7v10.9c0 .7-.2 1.3-.5 1.6s-.7.5-1.3.5-.9-.2-1.3-.6-.6-.6-.6-1.3zm11-3.3v3.1c0 .8-.2 1.3-.5 1.7-.4.4-.8.6-1.4.6-.5 0-1-.2-1.3-.6s-.5-1-.5-1.7v-10.5c0-1.7.6-2.5 1.8-2.5.6 0 1.1.2 1.4.6s.4 1 .5 1.8c.5-.8.9-1.4 1.4-1.8s1.1-.6 1.9-.6 1.6.2 2.3.6 1.1.9 1.1 1.6c0 .5-.2.8-.5 1.1s-.7.4-1 .4c-.1 0-.5-.1-1-.3s-1-.3-1.4-.3c-.6 0-1 .1-1.4.4a3.22 3.22 0 0 0-.8 1.3c-.2.6-.3 1.2-.4 2l-.2 3.1zm15.4-9.6h.9v-1.1c0-1.2.1-2.1.4-2.8s.8-1.2 1.5-1.5 1.7-.5 2.9-.5c2.2 0 3.3.5 3.3 1.6 0 .3-.1.6-.3.9-.2.2-.5.4-.8.4-.1 0-.4 0-.8-.1s-.7-.1-.9-.1c-.7 0-1.1.2-1.3.6s-.3 1-.3 1.7v.9h.9c1.4 0 2.2.4 2.2 1.3 0 .6-.2 1-.6 1.2s-.9.2-1.6.2h-.9v10c0 .7-.2 1.3-.5 1.7s-.8.6-1.4.6c-.5 0-1-.2-1.3-.6s-.5-1-.5-1.7v-10h-1c-.6 0-1-.1-1.3-.4s-.5-.6-.5-1c0-.8.7-1.3 1.9-1.3zm18.9 12.9c-.9.7-1.8 1.2-2.6 1.6-.9.4-1.8.5-2.9.5-1 0-1.8-.2-2.5-.6s-1.3-.9-1.7-1.6-.6-1.4-.6-2.1c0-1 .3-1.9 1-2.6s1.5-1.2 2.7-1.5c.2-.1.8-.2 1.8-.4l2.4-.5 2.2-.6c0-1-.2-1.7-.6-2.2s-1.1-.7-2.2-.7c-1 0-1.7.1-2.2.4s-.9.7-1.2 1.2l-.7 1.1c-.1.2-.4.3-.9.3-.4 0-.8-.1-1.1-.4s-.5-.6-.5-1c0-.7.2-1.3.7-1.9s1.2-1.1 2.2-1.5 2.2-.6 3.7-.6c1.7 0 3 .2 3.9.6s1.6 1 2 1.9c.4.8.6 2 .6 3.4v2.2 2.1c0 .7.1 1.4.4 2.2s.4 1.3.4 1.5c0 .4-.2.7-.5 1.1s-.8.5-1.2.5-.8-.2-1.1-.5c-.7-.7-1.1-1.2-1.5-1.9zm-.3-5.5c-.6.2-1.4.4-2.4.6l-2.2.5c-.4.1-.8.3-1.2.6s-.6.7-.6 1.3.2 1.1.6 1.5 1 .6 1.7.6 1.4-.2 2.1-.5c.6-.3 1.1-.7 1.4-1.3s.5-1.5.5-2.8v-.5zm9.5-5.4l3 8.6 3.3-8.9c.3-.7.5-1.2.8-1.5s.6-.4 1.1-.4.9.2 1.2.5.5.7.5 1.1c0 .2 0 .4-.1.6s-.1.4-.2.6-.2.4-.3.7l-3.6 9c-.1.3-.2.6-.4 1s-.3.7-.5 1-.4.5-.7.7-.6.2-1.1.2-1-.1-1.3-.4c-.3-.2-.6-.5-.7-.8-.2-.3-.4-.9-.8-1.7l-3.6-8.9c-.1-.2-.2-.4-.3-.7-.1-.2-.2-.4-.2-.7-.1-.2-.1-.4-.1-.6 0-.3.1-.5.2-.8.2-.3.4-.5.6-.6.3-.2.6-.2.9-.2.6 0 1.1.2 1.3.5.5.3.7.9 1 1.7zm26.4 5.4a10.07 10.07 0 0 1-.5 3.1c-.3.9-.9 1.8-1.5 2.4-.7.7-1.5 1.2-2.4 1.6s-2 .5-3.1.5-2.2-.2-3.1-.6-1.7-.9-2.4-1.6a6.08 6.08 0 0 1-1.5-2.4 10.07 10.07 0 0 1-.5-3.1 10.07 10.07 0 0 1 .5-3.1c.3-.9.9-1.8 1.5-2.4s1.4-1.2 2.4-1.6c.9-.4 2-.5 3.1-.5s2.2.2 3.1.6 1.7.9 2.4 1.6a6.08 6.08 0 0 1 1.5 2.4c.3.9.5 1.9.5 3.1zm-3.8 0c0-1.5-.3-2.7-1-3.6s-1.6-1.3-2.7-1.3c-.7 0-1.4.2-1.9.6s-1 .9-1.3 1.7c-.3.7-.5 1.6-.5 2.6s.1 1.8.4 2.6c.3.7.7 1.3 1.3 1.7s1.2.6 2 .6c1.1 0 2-.4 2.7-1.3s1-2.1 1-3.6zm10.5 2.2v3.1c0 .8-.2 1.3-.5 1.7-.4.4-.8.6-1.4.6-.5 0-1-.2-1.3-.6s-.5-1-.5-1.7v-10.5c0-1.7.6-2.5 1.8-2.5.6 0 1.1.2 1.4.6s.4 1 .5 1.8c.5-.8.9-1.4 1.4-1.8s1.1-.6 1.9-.6 1.6.2 2.3.6 1.1.9 1.1 1.6c0 .5-.2.8-.5 1.1s-.7.4-1 .4c-.1 0-.5-.1-1-.3s-1-.3-1.4-.3c-.6 0-1 .1-1.4.4a3.22 3.22 0 0 0-.8 1.3c-.2.6-.3 1.2-.4 2-.2 1-.2 1.9-.2 3.1zm10.5-11.7c-.5 0-1-.2-1.3-.5-.4-.3-.6-.8-.6-1.4 0-.5.2-1 .6-1.3s.8-.5 1.3-.5.9.2 1.3.5.6.8.6 1.4-.2 1-.6 1.4c-.3.3-.7.4-1.3.4zm1.9 3.9v10.9c0 .8-.2 1.3-.5 1.7-.4.4-.8.6-1.4.6s-1-.2-1.3-.6-.5-1-.5-1.7v-10.8c0-.7.2-1.3.5-1.7s.8-.6 1.3-.6c.6 0 1 .2 1.4.6.3.4.5 1 .5 1.6zm4.1-1.8h.4v-2.3-1.4c0-.3.1-.6.3-.9.1-.3.4-.5.6-.6.3-.2.6-.2.9-.2.5 0 .9.2 1.3.5.3.2.4.5.5.9s.1.8.1 1.5v2.6h1.4c.5 0 .9.1 1.2.4s.4.6.4 1c0 .5-.2.9-.6 1.1s-1 .3-1.7.3h-.6v6.9c0 .6 0 1 .1 1.4s.2.6.3.8c.2.2.5.3.9.3.2 0 .5 0 .9-.1s.7-.1.9-.1c.3 0 .6.1.8.4.2.2.4.5.4.9 0 .6-.3 1.1-1 1.4s-1.6.5-2.9.5c-1.2 0-2.1-.2-2.7-.6s-1-.9-1.2-1.6-.3-1.6-.3-2.8v-7.2h-.5c-.5 0-1-.1-1.2-.4s-.4-.6-.4-1 .1-.7.4-1c.3-.5.7-.7 1.3-.7zm20.3 8.3h-7.4c0 .9.2 1.6.5 2.3s.8 1.1 1.3 1.5 1.2.5 1.8.5a3.73 3.73 0 0 0 1.2-.2c.4-.1.7-.3 1.1-.5l1-.7 1.1-1c.2-.2.5-.2.8-.2.4 0 .7.1.9.3s.4.5.4.9c0 .3-.1.7-.4 1.2s-.7.9-1.2 1.3-1.2.8-2 1c-.8.3-1.7.4-2.8.4-2.4 0-4.3-.7-5.6-2.1s-2-3.3-2-5.6c0-1.1.2-2.1.5-3.1s.8-1.8 1.4-2.4 1.4-1.2 2.3-1.6 2-.5 3.1-.5c1.5 0 2.7.3 3.8.9s1.8 1.4 2.4 2.4c.5 1 .8 2 .8 3 0 .9-.3 1.6-.8 1.8-.4.2-1.2.4-2.2.4zm-7.4-2.2h6.8c-.1-1.3-.4-2.3-1-2.9a3.31 3.31 0 0 0-2.4-1c-.9 0-1.7.3-2.3 1s-.9 1.7-1.1 2.9zM817 384c0 .5-.1 1-.4 1.5s-.7 1-1.3 1.5-1.3.9-2.2 1.2-1.9.4-3 .4c-2.3 0-4.1-.7-5.4-2-1.3-1.4-2-3.2-2-5.5 0-1.5.3-2.9.9-4.1s1.5-2.1 2.6-2.8c1.1-.6 2.5-1 4.1-1 1 0 1.9.1 2.7.4s1.5.7 2.1 1.1c.6.5 1 .9 1.3 1.4s.4 1 .4 1.4c0 .5-.2.8-.5 1.1s-.7.5-1.2.5c-.3 0-.6-.1-.8-.2a6.53 6.53 0 0 1-.7-.8c-.5-.7-.9-1.2-1.4-1.6-.5-.3-1.1-.5-1.9-.5-1.1 0-2 .4-2.7 1.3s-1 2.1-1 3.6c0 .7.1 1.4.3 2s.4 1.1.8 1.5c.3.4.7.7 1.2 1 .5.2 1 .3 1.5.3.8 0 1.4-.2 1.9-.5s1-.9 1.4-1.6a4.31 4.31 0 0 1 .7-1 1.53 1.53 0 0 1 1-.4c.5 0 .8.2 1.1.5.3.5.5.9.5 1.3zm12.8 2.5c-.9.7-1.8 1.2-2.6 1.6-.9.4-1.8.5-2.9.5-1 0-1.8-.2-2.5-.6s-1.3-.9-1.7-1.6-.6-1.4-.6-2.1c0-1 .3-1.9 1-2.6s1.5-1.2 2.7-1.5c.2-.1.8-.2 1.8-.4l2.4-.5 2.2-.6c0-1-.2-1.7-.6-2.2s-1.1-.7-2.2-.7c-1 0-1.7.1-2.2.4s-.9.7-1.2 1.2l-.7 1.1c-.1.2-.4.3-.9.3-.4 0-.8-.1-1.1-.4s-.5-.6-.5-1c0-.7.2-1.3.7-1.9s1.2-1.1 2.2-1.5 2.2-.6 3.7-.6c1.7 0 3 .2 3.9.6s1.6 1 2 1.9c.4.8.6 2 .6 3.4v2.2 2.1c0 .7.1 1.4.4 2.2s.4 1.3.4 1.5c0 .4-.2.7-.5 1.1-.4.3-.8.5-1.2.5s-.8-.2-1.1-.5c-.7-.7-1.1-1.2-1.5-1.9zm-.3-5.5c-.6.2-1.4.4-2.4.6l-2.2.5c-.4.1-.8.3-1.2.6s-.6.7-.6 1.3.2 1.1.6 1.5 1 .6 1.7.6 1.4-.2 2.1-.5c.6-.3 1.1-.7 1.4-1.3s.5-1.5.5-2.8v-.5zm21 3c0 .5-.1 1-.4 1.5s-.7 1-1.3 1.5-1.3.9-2.2 1.2-1.9.4-3 .4c-2.3 0-4.1-.7-5.4-2-1.3-1.4-2-3.2-2-5.5 0-1.5.3-2.9.9-4.1s1.5-2.1 2.6-2.8c1.1-.6 2.5-1 4.1-1 1 0 1.9.1 2.7.4s1.5.7 2.1 1.1c.6.5 1 .9 1.3 1.4s.4 1 .4 1.4c0 .5-.2.8-.5 1.1s-.7.5-1.2.5c-.3 0-.6-.1-.8-.2-.2-.2-.4-.4-.7-.8-.5-.7-.9-1.2-1.4-1.6-.5-.3-1.1-.5-1.9-.5-1.1 0-2 .4-2.7 1.3s-1 2.1-1 3.6c0 .7.1 1.4.3 2s.4 1.1.8 1.5c.3.4.7.7 1.2 1 .5.2 1 .3 1.5.3.8 0 1.4-.2 1.9-.5s1-.9 1.4-1.6a4.31 4.31 0 0 1 .7-1c.3-.2.6-.4 1-.4.5 0 .8.2 1.1.5.4.5.5.9.5 1.3zm6.3-14v5.6c.5-.6.9-1 1.4-1.3s1-.6 1.5-.7c.6-.2 1.1-.2 1.8-.2 1 0 1.8.2 2.5.6s1.3 1 1.7 1.8c.3.5.4 1 .5 1.5s.1 1.2.1 1.9v7.2c0 .8-.2 1.3-.5 1.7s-.8.6-1.4.6c-1.2 0-1.9-.8-1.9-2.3V380c0-1.2-.2-2.1-.5-2.8-.4-.6-1-1-2-1-.7 0-1.3.2-1.8.6s-.9.9-1.2 1.6c-.2.6-.3 1.6-.3 3v5c0 .7-.2 1.3-.5 1.7s-.8.6-1.4.6c-1.2 0-1.9-.8-1.9-2.3V370c0-.8.2-1.3.5-1.7s.8-.6 1.4-.6 1.1.2 1.4.6.6.9.6 1.7zm15.3 1.5c-.5 0-1-.2-1.3-.5-.4-.3-.6-.8-.6-1.4 0-.5.2-1 .6-1.3s.8-.5 1.3-.5.9.2 1.3.5.6.8.6 1.4-.2 1-.6 1.4c-.4.3-.8.4-1.3.4zm1.8 3.9v10.9c0 .8-.2 1.3-.5 1.7-.4.4-.8.6-1.4.6s-1-.2-1.3-.6-.5-1-.5-1.7v-10.8c0-.7.2-1.3.5-1.7s.8-.6 1.3-.6 1 .2 1.4.6.5 1 .5 1.6zm7.4 0v.5c.7-.9 1.4-1.5 2.2-1.9s1.7-.6 2.7-.6 1.9.2 2.7.6 1.4 1 1.8 1.8c.2.5.4 1 .5 1.5s.1 1.2.1 2v7c0 .8-.2 1.3-.5 1.7s-.8.6-1.3.6c-.6 0-1-.2-1.4-.6s-.5-1-.5-1.7V380c0-1.2-.2-2.2-.5-2.8-.3-.7-1-1-2.1-1-.7 0-1.3.2-1.8.6s-1 .9-1.2 1.6c-.2.6-.3 1.6-.3 3.1v4.7c0 .8-.2 1.3-.5 1.7-.4.4-.8.6-1.4.6-.5 0-1-.2-1.3-.6s-.5-1-.5-1.7v-10.9c0-.7.2-1.3.5-1.6s.7-.5 1.3-.5c.3 0 .6.1.9.2s.5.4.6.7c-.1.5 0 .8 0 1.3zm27.4.7V387c0 1.3-.1 2.3-.4 3.2s-.7 1.6-1.3 2.2-1.4 1-2.3 1.3-2.1.4-3.6.4c-1.3 0-2.5-.2-3.5-.5-1-.4-1.8-.8-2.4-1.4s-.8-1.2-.8-1.8c0-.5.2-.8.5-1.1s.7-.4 1.1-.4c.6 0 1 .2 1.4.7.2.2.4.5.6.8s.5.5.7.6c.3.2.6.3.9.4s.8.1 1.3.1c1 0 1.7-.1 2.3-.4.5-.3.9-.7 1.1-1.1s.3-1 .4-1.6.1-1.5.1-2.7c-.6.8-1.2 1.4-2 1.8s-1.7.6-2.7.6c-1.3 0-2.4-.3-3.3-1-.9-.6-1.7-1.5-2.2-2.7a10.19 10.19 0 0 1-.8-4 10.07 10.07 0 0 1 .5-3.1c.3-.9.7-1.7 1.3-2.3s1.2-1.1 2-1.4 1.6-.5 2.5-.5c1.1 0 2 .2 2.8.6s1.5 1.1 2.2 1.9v-.5c0-.7.2-1.2.5-1.5s.7-.5 1.2-.5c.7 0 1.2.2 1.4.7.4.7.5 1.4.5 2.3zm-10.9 4.7c0 1.5.3 2.7 1 3.5a3.22 3.22 0 0 0 2.6 1.2c.6 0 1.2-.2 1.8-.5s1-.8 1.4-1.5c.3-.7.5-1.5.5-2.5 0-1.5-.3-2.7-1-3.6s-1.6-1.3-2.7-1.3a3.22 3.22 0 0 0-2.6 1.2c-.6.9-1 2-1 3.5zm33.9 2.9c0 1-.3 1.9-.8 2.7-.5.7-1.3 1.3-2.2 1.7-1 .4-2.2.6-3.6.6s-2.5-.2-3.5-.6-1.7-.9-2.1-1.6c-.5-.6-.7-1.2-.7-1.9 0-.4.1-.8.4-1.1s.7-.4 1.1-.4.7.1.9.3.4.5.6.8c.4.7.8 1.2 1.4 1.5.5.3 1.3.5 2.2.5.8 0 1.4-.2 1.9-.5s.7-.7.7-1.2c0-.7-.3-1.1-.8-1.4s-1.3-.6-2.5-.9c-1.3-.3-2.4-.7-3.2-1-.8-.4-1.5-.8-2-1.4s-.7-1.3-.7-2.1.2-1.5.7-2.1 1.1-1.2 2-1.6 1.9-.6 3.2-.6c1 0 1.9.1 2.6.3a6.78 6.78 0 0 1 1.9.8c.5.3.9.7 1.2 1.1a1.92 1.92 0 0 1 .4 1.2c0 .4-.1.8-.4 1.1s-.7.4-1.2.4a1.69 1.69 0 0 1-1-.3c-.3-.2-.6-.6-.9-1s-.6-.7-1-.9-.9-.3-1.6-.3-1.2.1-1.7.4-.7.7-.7 1.1.2.7.5 1 .8.5 1.3.6c.6.2 1.3.4 2.3.6 1.2.3 2.1.6 2.9 1 .7.4 1.3.9 1.7 1.4.6.5.7 1.1.7 1.8zm6.7 5.4l.3-.8-4.6-11.7c-.3-.7-.4-1.2-.4-1.5s.1-.6.2-.9.4-.5.7-.7.6-.2.9-.2c.5 0 1 .2 1.2.5.3.3.5.8.7 1.5l3.2 9.3 3-8.6c.2-.7.5-1.2.6-1.6.2-.4.4-.7.6-.8s.5-.2.9-.2c.3 0 .6.1.8.2.3.2.5.4.6.6.1.3.2.5.2.8 0 .2-.1.4-.2.7l-.3 1-4.9 12.9c-.4 1.1-.8 2-1.2 2.7s-.9 1.1-1.6 1.5c-.7.3-1.6.5-2.7.5s-1.9-.1-2.5-.4-.8-.7-.8-1.3c0-.4.1-.8.4-1s.7-.4 1.2-.4c.2 0 .4 0 .6.1s.4.1.6.1c.4 0 .8-.1 1-.2s.5-.4.7-.7c.3-.3.5-.8.8-1.4zm23.6-5.4c0 1-.3 1.9-.8 2.7-.5.7-1.3 1.3-2.2 1.7s-2.2.6-3.6.6-2.5-.2-3.5-.6-1.7-.9-2.1-1.6c-.5-.6-.7-1.2-.7-1.9 0-.4.1-.8.4-1.1s.7-.4 1.1-.4.7.1.9.3.4.5.6.8c.4.7.8 1.2 1.4 1.5.5.3 1.3.5 2.2.5.8 0 1.4-.2 1.9-.5s.7-.7.7-1.2c0-.7-.3-1.1-.8-1.4s-1.3-.6-2.5-.9c-1.3-.3-2.4-.7-3.2-1-.8-.4-1.5-.8-2-1.4s-.7-1.3-.7-2.1.2-1.5.7-2.1 1.1-1.2 2-1.6 1.9-.6 3.2-.6c1 0 1.9.1 2.6.3a6.78 6.78 0 0 1 1.9.8c.5.3.9.7 1.2 1.1a1.92 1.92 0 0 1 .4 1.2c0 .4-.1.8-.4 1.1s-.7.4-1.2.4a1.69 1.69 0 0 1-1-.3c-.3-.2-.6-.6-.9-1s-.6-.7-1-.9-.9-.3-1.6-.3-1.2.1-1.7.4-.7.7-.7 1.1.2.7.5 1 .8.5 1.3.6c.6.2 1.3.4 2.3.6 1.2.3 2.1.6 2.9 1 .7.4 1.3.9 1.7 1.4.5.5.7 1.1.7 1.8zm3.4-10.1h.4v-2.3-1.4c0-.3.1-.6.3-.9.1-.3.4-.5.6-.6a2.39 2.39 0 0 1 .9-.2c.5 0 .9.2 1.3.5.3.2.4.5.5.9s.1.8.1 1.5v2.6h1.4c.5 0 .9.1 1.2.4s.4.6.4 1c0 .5-.2.9-.6 1.1s-1 .3-1.7.3h-.7v6.9c0 .6 0 1 .1 1.4s.2.6.3.8.5.3.9.3c.2 0 .5 0 .9-.1s.7-.1.9-.1c.3 0 .6.1.8.4s.4.5.4.9c0 .6-.3 1.1-1 1.4s-1.6.5-2.9.5c-1.2 0-2.1-.2-2.7-.6s-1-.9-1.2-1.6-.3-1.6-.3-2.8v-7.2h-.5c-.5 0-1-.1-1.2-.4s-.4-.6-.4-1 .1-.7.4-1c.4-.5.8-.7 1.4-.7zm20.3 8.3h-7.4c0 .9.2 1.6.5 2.3s.8 1.1 1.3 1.5 1.2.5 1.8.5a3.73 3.73 0 0 0 1.2-.2c.4-.1.7-.3 1.1-.5s.7-.5 1-.7.7-.6 1.1-1c.2-.2.5-.2.8-.2.4 0 .7.1.9.3s.4.5.4.9c0 .3-.1.7-.4 1.2s-.7.9-1.2 1.3-1.2.8-2 1c-.8.3-1.7.4-2.8.4-2.4 0-4.3-.7-5.6-2.1s-2-3.3-2-5.6c0-1.1.2-2.1.5-3.1s.8-1.8 1.4-2.4c.6-.7 1.4-1.2 2.3-1.6s2-.5 3.1-.5c1.5 0 2.7.3 3.8.9s1.8 1.4 2.4 2.4c.5 1 .8 2 .8 3 0 .9-.3 1.6-.8 1.8s-1.2.4-2.2.4zm-7.4-2.2h6.8c-.1-1.3-.4-2.3-1-2.9a3.31 3.31 0 0 0-2.4-1c-.9 0-1.7.3-2.3 1s-.9 1.7-1.1 2.9zm26.2 1.5v5c0 .8-.2 1.4-.5 1.8-.4.4-.8.6-1.4.6s-1-.2-1.4-.6-.5-1-.5-1.8v-6l-.1-2.2c-.1-.5-.2-1-.5-1.3s-.7-.5-1.4-.5c-1.2 0-2 .4-2.4 1.3s-.6 2.1-.6 3.6v5.1c0 .8-.2 1.4-.5 1.8s-.8.6-1.4.6-1-.2-1.4-.6-.5-1-.5-1.8v-10.8c0-.7.2-1.2.5-1.6s.8-.6 1.3-.6.9.2 1.3.5c.3.3.5.8.5 1.4v.4c.7-.8 1.4-1.4 2.1-1.7s1.6-.6 2.5-.6 1.8.2 2.4.6c.7.4 1.2.9 1.7 1.7.6-.8 1.3-1.3 2-1.7s1.5-.6 2.4-.6c1 0 1.9.2 2.7.6a4.62 4.62 0 0 1 1.7 1.7c.3.7.5 1.8.5 3.2v7.4c0 .8-.2 1.4-.5 1.8s-.8.6-1.4.6-1-.2-1.4-.6-.5-1-.5-1.8v-6.3c0-.8 0-1.5-.1-1.9s-.3-.9-.6-1.2-.8-.5-1.4-.5c-.5 0-1 .1-1.4.4s-.8.7-1 1.2c-.6.7-.7 1.8-.7 3.4zm15 7.4c-.6 0-1.1-.2-1.5-.6s-.6-.9-.6-1.5.2-1 .6-1.4.9-.6 1.5-.6 1.1.2 1.5.6.6.9.6 1.5c0 .7-.2 1.2-.6 1.5-.5.3-1 .5-1.5.5z"/>
    <path fill="#fff" d="M342.8 383l-1-2.5h-8.2l-1 2.6c-.4 1-.7 1.7-1 2-.3.4-.7.5-1.3.5-.5 0-1-.2-1.4-.6s-.6-.8-.6-1.3c0-.3 0-.6.1-.9s.2-.7.5-1.2l5.2-13.1c.1-.4.3-.8.5-1.4.2-.5.4-1 .7-1.3a2.36 2.36 0 0 1 .9-.8c.4-.2.9-.3 1.4-.3.6 0 1 .1 1.4.3a2.36 2.36 0 0 1 .9.8c.2.3.4.7.6 1.1a9.12 9.12 0 0 1 .6 1.6l5.3 13.1c.4 1 .6 1.7.6 2.2s-.2.9-.6 1.3-.9.6-1.4.6c-.3 0-.6-.1-.8-.2s-.4-.3-.6-.5-.3-.5-.5-.9c0-.4-.2-.8-.3-1.1zm-8.1-5.6h6l-3-8.3-3 8.3zm24.6-4.8l2.5 8.4 2.2-7.8.5-1.7c.1-.3.3-.6.6-.9s.8-.4 1.3-.4c.6 0 1 .1 1.3.4s.5.6.7.9.3.9.5 1.6l2.2 7.8 2.5-8.4.4-1.3c.1-.3.3-.5.5-.7s.6-.3 1-.3c.5 0 .8.2 1.2.5.3.3.5.7.5 1.1s-.1 1-.4 1.8l-3.1 9-.6 1.7c-.1.4-.4.6-.7.9s-.8.4-1.3.4c-.6 0-1-.1-1.3-.4s-.6-.6-.7-1-.3-1-.5-1.6l-2.2-7.3-2.1 7.3c-.3 1-.6 1.8-.9 2.3s-.9.8-1.7.8c-.4 0-.8-.1-1.1-.2s-.5-.4-.7-.7-.4-.7-.5-1.1-.3-.7-.3-1l-3-9c-.3-.8-.5-1.4-.5-1.8s.2-.8.5-1.1.7-.5 1.2-.5c.6 0 1 .2 1.3.5.2.4.5 1 .7 1.8zm30.8 6.3h-7.4c0 .9.2 1.6.5 2.3s.8 1.1 1.3 1.5 1.2.5 1.8.5a3.73 3.73 0 0 0 1.2-.2c.3-.1.7-.3 1.1-.5l1-.7 1.1-1c.2-.2.5-.2.8-.2.4 0 .7.1.9.3s.4.5.4.9c0 .3-.1.7-.4 1.2s-.7.9-1.2 1.3-1.2.8-2 1c-.8.3-1.7.4-2.8.4-2.4 0-4.3-.7-5.6-2.1s-2-3.3-2-5.6c0-1.1.2-2.1.5-3.1s.8-1.8 1.4-2.4c.6-.7 1.4-1.2 2.3-1.6s2-.5 3.1-.5c1.5 0 2.7.3 3.8.9s1.8 1.4 2.4 2.4c.5 1 .8 2 .8 3 0 .9-.3 1.6-.8 1.8s-1.2.4-2.2.4zm-7.4-2.2h6.8c-.1-1.3-.4-2.3-1-2.9a3.31 3.31 0 0 0-2.4-1c-.9 0-1.7.3-2.3 1s-1 1.7-1.1 2.9zm16.8-9.8v5.8c.7-.7 1.4-1.3 2.2-1.7.7-.4 1.6-.6 2.7-.6 1.3 0 2.3.3 3.3.9s1.7 1.5 2.2 2.6.8 2.5.8 4c0 1.1-.1 2.2-.4 3.1-.3 1-.7 1.8-1.3 2.5s-1.2 1.2-2 1.6-1.7.6-2.6.6c-.6 0-1.1-.1-1.6-.2s-.9-.3-1.3-.5-.7-.5-.9-.7l-1-1.1v.4c0 .7-.2 1.2-.5 1.6s-.8.5-1.3.5-1-.2-1.3-.5c-.3-.4-.5-.9-.5-1.6V367c0-.8.2-1.3.5-1.7s.7-.6 1.3-.6 1 .2 1.3.6c.2.3.4.9.4 1.6zm.1 11.1c0 1.5.3 2.7 1 3.5s1.6 1.2 2.7 1.2a2.98 2.98 0 0 0 2.4-1.2c.7-.8 1-2 1-3.5 0-1-.1-1.8-.4-2.6s-.7-1.3-1.2-1.7-1.1-.6-1.8-.6-1.4.2-1.9.6c-.6.4-1 1-1.3 1.7s-.5 1.6-.5 2.6zm31.4 5.5v-.4c-.5.6-1 1.1-1.5 1.4-.5.4-1 .6-1.6.8s-1.2.3-1.9.3a5.42 5.42 0 0 1-2.5-.6c-.8-.4-1.4-.9-2-1.6s-1-1.5-1.3-2.5-.4-2-.4-3.1c0-2.4.6-4.2 1.7-5.5s2.7-2 4.5-2c1.1 0 2 .2 2.7.6s1.5.9 2.2 1.7V367c0-.8.2-1.4.5-1.8s.7-.6 1.3-.6 1 .2 1.3.5c.3.4.5.9.5 1.6v16.6c0 .7-.2 1.3-.5 1.6s-.8.5-1.3.5-.9-.2-1.3-.6c-.2-.1-.4-.6-.4-1.3zm-7.4-5.6c0 1 .2 1.9.5 2.6s.8 1.3 1.3 1.6c.6.4 1.2.5 1.8.5.7 0 1.3-.2 1.8-.5s1-.9 1.3-1.6.5-1.6.5-2.7c0-1-.2-1.9-.5-2.6s-.8-1.3-1.3-1.7-1.2-.6-1.8-.6c-.7 0-1.3.2-1.8.6s-1 1-1.3 1.7-.5 1.8-.5 2.7zm24.3 5.6c-.9.7-1.8 1.2-2.6 1.6s-1.8.5-2.9.5c-1 0-1.8-.2-2.5-.6s-1.3-.9-1.7-1.6-.6-1.4-.6-2.1c0-1 .3-1.9 1-2.6s1.5-1.2 2.7-1.5c.2-.1.8-.2 1.8-.4l2.4-.5 2.2-.6c0-1-.2-1.7-.6-2.2s-1.1-.7-2.2-.7c-1 0-1.7.1-2.2.4s-.9.7-1.2 1.2l-.7 1.1c-.1.2-.4.3-.9.3-.4 0-.8-.1-1.1-.4s-.5-.6-.5-1c0-.7.2-1.3.7-1.9s1.2-1.1 2.2-1.5 2.2-.6 3.7-.6c1.7 0 3 .2 3.9.6s1.6 1 2 1.9c.4.8.6 2 .6 3.4v2.2 2.1c0 .7.1 1.4.4 2.2l.4 1.5c0 .4-.2.7-.5 1.1-.4.3-.8.5-1.2.5s-.8-.2-1.1-.5c-.7-.7-1.1-1.2-1.5-1.9zm-.3-5.5c-.6.2-1.4.4-2.4.6l-2.2.5c-.4.1-.8.3-1.2.6s-.6.7-.6 1.3.2 1.1.6 1.5 1 .6 1.7.6 1.4-.2 2.1-.5 1.1-.7 1.4-1.3.5-1.5.5-2.8v-.5zm19.7 2.7c0 1-.3 1.9-.8 2.7-.5.7-1.3 1.3-2.2 1.7-1 .4-2.2.6-3.6.6s-2.5-.2-3.5-.6-1.7-.9-2.1-1.6c-.5-.6-.7-1.2-.7-1.9 0-.4.1-.8.4-1.1s.7-.4 1.1-.4.7.1.9.3.4.5.6.8c.4.7.8 1.2 1.4 1.5.5.3 1.3.5 2.2.5.8 0 1.4-.2 1.9-.5s.7-.7.7-1.2c0-.7-.3-1.1-.8-1.4s-1.3-.6-2.5-.9c-1.3-.3-2.4-.7-3.2-1-.8-.4-1.5-.8-2-1.4s-.7-1.3-.7-2.1.2-1.5.7-2.1c.5-.7 1.1-1.2 2-1.6s1.9-.6 3.2-.6c1 0 1.9.1 2.6.3a6.78 6.78 0 0 1 1.9.8c.5.3.9.7 1.2 1.1a1.92 1.92 0 0 1 .4 1.2c0 .4-.1.8-.4 1.1s-.7.4-1.2.4a1.69 1.69 0 0 1-1-.3c-.3-.2-.6-.6-.9-1s-.6-.7-1-.9-.9-.3-1.6-.3-1.2.1-1.7.4-.7.7-.7 1.1.2.7.5 1 .8.5 1.3.6c.6.2 1.3.4 2.3.6 1.2.3 2.1.6 2.9 1s1.3.9 1.7 1.4c.5.5.7 1.1.7 1.8zm6.8-13.7v5.6c.5-.6.9-1 1.4-1.3s1-.6 1.5-.7c.6-.2 1.1-.2 1.8-.2 1 0 1.8.2 2.5.6s1.3 1 1.7 1.8c.3.5.4 1 .5 1.5.1.6.1 1.2.1 1.9v7.2c0 .8-.2 1.3-.5 1.7s-.8.6-1.4.6c-1.2 0-1.9-.8-1.9-2.3V377c0-1.2-.2-2.1-.5-2.8-.4-.6-1-1-2-1-.7 0-1.3.2-1.8.6s-.9.9-1.2 1.6c-.2.6-.3 1.6-.3 3v5c0 .7-.2 1.3-.5 1.7s-.8.6-1.4.6c-1.2 0-1.9-.8-1.9-2.3V367c0-.8.2-1.3.5-1.7s.8-.6 1.4-.6 1.1.2 1.4.6c.5.4.6.9.6 1.7zm16.9-.1v5.8c.7-.7 1.4-1.3 2.2-1.7.7-.4 1.6-.6 2.7-.6 1.3 0 2.3.3 3.3.9s1.7 1.5 2.2 2.6.8 2.5.8 4c0 1.1-.1 2.2-.4 3.1-.3 1-.7 1.8-1.3 2.5s-1.2 1.2-2 1.6-1.7.6-2.6.6c-.6 0-1.1-.1-1.6-.2s-.9-.3-1.3-.5-.7-.5-.9-.7c-.3-.2-.6-.6-1-1.1v.4c0 .7-.2 1.2-.5 1.6s-.8.5-1.3.5-1-.2-1.3-.5c-.3-.4-.5-.9-.5-1.6V367c0-.8.2-1.3.5-1.7s.7-.6 1.3-.6 1 .2 1.3.6.4.9.4 1.6zm.2 11.1c0 1.5.3 2.7 1 3.5s1.6 1.2 2.7 1.2a2.98 2.98 0 0 0 2.4-1.2c.7-.8 1-2 1-3.5 0-1-.1-1.8-.4-2.6s-.7-1.3-1.2-1.7-1.1-.6-1.8-.6-1.4.2-1.9.6-1 1-1.3 1.7c-.4.7-.5 1.6-.5 2.6zm28.1 0a10.07 10.07 0 0 1-.5 3.1c-.3.9-.9 1.8-1.5 2.4-.7.7-1.5 1.2-2.4 1.6s-2 .5-3.1.5-2.2-.2-3.1-.6-1.7-.9-2.4-1.6a6.08 6.08 0 0 1-1.5-2.4 10.07 10.07 0 0 1-.5-3.1 10.07 10.07 0 0 1 .5-3.1c.3-.9.9-1.8 1.5-2.4a6.74 6.74 0 0 1 2.4-1.6c.9-.4 2-.5 3.1-.5s2.2.2 3.1.6 1.7.9 2.4 1.6a6.08 6.08 0 0 1 1.5 2.4c.3.9.5 1.9.5 3.1zm-3.8 0c0-1.5-.3-2.7-1-3.6s-1.6-1.3-2.7-1.3c-.7 0-1.4.2-1.9.6s-1 .9-1.3 1.7-.5 1.6-.5 2.6.1 1.8.4 2.6c.3.7.7 1.3 1.3 1.7s1.2.6 2 .6c1.1 0 2-.4 2.7-1.3s1-2.1 1-3.6zm16.3 5.5c-.9.7-1.8 1.2-2.6 1.6s-1.8.5-2.9.5c-1 0-1.8-.2-2.5-.6s-1.3-.9-1.7-1.6-.6-1.4-.6-2.1c0-1 .3-1.9 1-2.6s1.5-1.2 2.7-1.5c.2-.1.8-.2 1.8-.4l2.4-.5 2.2-.6c0-1-.2-1.7-.6-2.2s-1.1-.7-2.2-.7c-1 0-1.7.1-2.2.4s-.9.7-1.2 1.2l-.7 1.1c-.1.2-.4.3-.9.3-.4 0-.8-.1-1.1-.4s-.5-.6-.5-1c0-.7.2-1.3.7-1.9s1.2-1.1 2.2-1.5 2.2-.6 3.7-.6c1.7 0 3 .2 3.9.6s1.6 1 2 1.9c.4.8.6 2 .6 3.4v2.2 2.1c0 .7.1 1.4.4 2.2l.4 1.5c0 .4-.2.7-.5 1.1-.4.3-.8.5-1.2.5s-.8-.2-1.1-.5c-.7-.7-1.1-1.2-1.5-1.9zm-.3-5.5c-.6.2-1.4.4-2.4.6l-2.2.5c-.4.1-.8.3-1.2.6s-.6.7-.6 1.3.2 1.1.6 1.5 1 .6 1.7.6 1.4-.2 2.1-.5c.6-.3 1.1-.7 1.4-1.3s.5-1.5.5-2.8v-.5zm11.3 2.2v3.1c0 .8-.2 1.3-.5 1.7-.4.4-.8.6-1.4.6-.5 0-1-.2-1.3-.6s-.5-1-.5-1.7v-10.5c0-1.7.6-2.5 1.8-2.5.6 0 1.1.2 1.4.6s.4 1 .5 1.8c.5-.8.9-1.4 1.4-1.8s1.1-.6 1.9-.6 1.6.2 2.3.6 1.1.9 1.1 1.6c0 .5-.2.8-.5 1.1s-.7.4-1 .4c-.1 0-.5-.1-1-.3s-1-.3-1.4-.3c-.6 0-1 .1-1.4.4a3.22 3.22 0 0 0-.8 1.3c-.2.6-.3 1.2-.4 2-.2 1-.2 1.9-.2 3.1zm18.2 3.3v-.4c-.5.6-1 1.1-1.5 1.4-.5.4-1 .6-1.6.8s-1.2.3-1.9.3a5.42 5.42 0 0 1-2.5-.6c-.8-.4-1.4-.9-2-1.6s-1-1.5-1.3-2.5-.4-2-.4-3.1c0-2.4.6-4.2 1.7-5.5s2.7-2 4.5-2c1.1 0 2 .2 2.7.6s1.5.9 2.2 1.7V367c0-.8.2-1.4.5-1.8s.7-.6 1.3-.6 1 .2 1.3.5c.3.4.5.9.5 1.6v16.6c0 .7-.2 1.3-.5 1.6-.3.4-.8.5-1.3.5s-.9-.2-1.3-.6c-.2-.1-.4-.6-.4-1.3zm-7.4-5.6c0 1 .2 1.9.5 2.6s.8 1.3 1.3 1.6c.6.4 1.2.5 1.8.5.7 0 1.3-.2 1.8-.5s1-.9 1.3-1.6.5-1.6.5-2.7c0-1-.2-1.9-.5-2.6s-.8-1.3-1.3-1.7-1.2-.6-1.8-.6c-.7 0-1.3.2-1.8.6s-1 1-1.3 1.7-.5 1.8-.5 2.7zm21.5-7.3h.9v-1.1c0-1.2.1-2.1.4-2.8s.8-1.2 1.5-1.5 1.7-.5 2.9-.5c2.2 0 3.3.5 3.3 1.6 0 .3-.1.6-.3.9-.2.2-.5.4-.8.4-.1 0-.4 0-.8-.1s-.7-.1-.9-.1c-.7 0-1.1.2-1.3.6s-.3 1-.3 1.7v.9h.9c1.4 0 2.2.4 2.2 1.3 0 .6-.2 1-.6 1.2s-.9.2-1.6.2h-.9v10c0 .7-.2 1.3-.5 1.7s-.8.6-1.4.6c-.5 0-1-.2-1.3-.6s-.5-1-.5-1.7v-10h-1c-.6 0-1-.1-1.3-.4s-.5-.6-.5-1c0-.8.6-1.3 1.9-1.3zm23.4 7.4a10.07 10.07 0 0 1-.5 3.1c-.3.9-.9 1.8-1.5 2.4-.7.7-1.5 1.2-2.4 1.6s-2 .5-3.1.5-2.2-.2-3.1-.6-1.7-.9-2.4-1.6a6.08 6.08 0 0 1-1.5-2.4 10.07 10.07 0 0 1-.5-3.1 10.07 10.07 0 0 1 .5-3.1c.3-.9.9-1.8 1.5-2.4a6.74 6.74 0 0 1 2.4-1.6c.9-.4 2-.5 3.1-.5s2.2.2 3.1.6 1.7.9 2.4 1.6a6.08 6.08 0 0 1 1.5 2.4c.4.9.5 1.9.5 3.1zm-3.7 0c0-1.5-.3-2.7-1-3.6s-1.6-1.3-2.7-1.3c-.7 0-1.4.2-1.9.6-.6.4-1 .9-1.3 1.7s-.5 1.6-.5 2.6.1 1.8.4 2.6c.3.7.7 1.3 1.3 1.7s1.2.6 2 .6c1.1 0 2-.4 2.7-1.3.6-.9 1-2.1 1-3.6zm10.4 2.2v3.1c0 .8-.2 1.3-.5 1.7-.4.4-.8.6-1.4.6-.5 0-1-.2-1.3-.6s-.5-1-.5-1.7v-10.5c0-1.7.6-2.5 1.8-2.5.6 0 1.1.2 1.4.6s.4 1 .5 1.8c.5-.8.9-1.4 1.4-1.8s1.1-.6 1.9-.6 1.6.2 2.3.6 1.1.9 1.1 1.6c0 .5-.2.8-.5 1.1s-.7.4-1 .4c-.1 0-.5-.1-1-.3s-1-.3-1.4-.3c-.6 0-1 .1-1.4.4a3.22 3.22 0 0 0-.8 1.3c-.2.6-.3 1.2-.4 2l-.2 3.1zm19.2 5.9l.3-.8-4.6-11.7c-.3-.7-.4-1.2-.4-1.5s.1-.6.2-.9c.2-.3.4-.5.7-.7s.6-.2.9-.2c.5 0 1 .2 1.2.5s.5.8.7 1.5l3.2 9.3 3-8.6c.2-.7.5-1.2.6-1.6.2-.4.4-.7.6-.8s.5-.2.9-.2c.3 0 .6.1.8.2.3.2.5.4.6.6.1.3.2.5.2.8 0 .2-.1.4-.2.7l-.3 1-4.9 12.9c-.4 1.1-.8 2-1.2 2.7s-.9 1.1-1.6 1.5c-.7.3-1.6.5-2.7.5s-1.9-.1-2.5-.4c-.6-.2-.8-.7-.8-1.3 0-.4.1-.8.4-1s.7-.4 1.2-.4c.2 0 .4 0 .6.1s.4.1.6.1c.4 0 .8-.1 1-.2s.5-.4.7-.7.6-.8.8-1.4zM650 378a10.07 10.07 0 0 1-.5 3.1c-.3.9-.9 1.8-1.5 2.4-.7.7-1.5 1.2-2.4 1.6s-2 .5-3.1.5-2.2-.2-3.1-.6-1.7-.9-2.4-1.6a6.08 6.08 0 0 1-1.5-2.4 10.07 10.07 0 0 1-.5-3.1 10.07 10.07 0 0 1 .5-3.1c.3-.9.9-1.8 1.5-2.4s1.4-1.2 2.4-1.6c.9-.4 2-.5 3.1-.5s2.2.2 3.1.6 1.7.9 2.4 1.6a6.08 6.08 0 0 1 1.5 2.4c.3.9.5 1.9.5 3.1zm-3.8 0c0-1.5-.3-2.7-1-3.6s-1.6-1.3-2.7-1.3c-.7 0-1.4.2-1.9.6s-1 .9-1.3 1.7c-.3.7-.5 1.6-.5 2.6s.1 1.8.4 2.6c.3.7.7 1.3 1.3 1.7s1.2.6 2 .6c1.1 0 2-.4 2.7-1.3s1-2.1 1-3.6zm16.5 5.5v-.5c-.5.6-.9 1-1.4 1.4s-1 .7-1.6.9-1.3.3-2 .3c-.9 0-1.7-.2-2.4-.6s-1.3-.9-1.7-1.6c-.5-.8-.7-1.9-.7-3.4v-7.5c0-.8.2-1.3.5-1.7s.8-.6 1.4-.6 1 .2 1.4.6c.3.4.5.9.5 1.7v6c0 .9.1 1.6.2 2.2s.4 1.1.8 1.4.9.5 1.6.5c.6 0 1.2-.2 1.8-.6s1-.9 1.2-1.5c.2-.5.3-1.7.3-3.5v-4.6c0-.7.2-1.3.5-1.7s.8-.6 1.4-.6 1 .2 1.4.6.5.9.5 1.7v10.9c0 .7-.2 1.3-.5 1.6s-.7.5-1.3.5-.9-.2-1.3-.6-.6-.6-.6-1.3zm11-3.3v3.1c0 .8-.2 1.3-.5 1.7-.4.4-.8.6-1.4.6-.5 0-1-.2-1.3-.6s-.5-1-.5-1.7v-10.5c0-1.7.6-2.5 1.8-2.5.6 0 1.1.2 1.4.6s.4 1 .5 1.8c.5-.8.9-1.4 1.4-1.8s1.1-.6 1.9-.6 1.6.2 2.3.6 1.1.9 1.1 1.6c0 .5-.2.8-.5 1.1s-.7.4-1 .4c-.1 0-.5-.1-1-.3s-1-.3-1.4-.3c-.6 0-1 .1-1.4.4a3.22 3.22 0 0 0-.8 1.3c-.2.6-.3 1.2-.4 2l-.2 3.1zm15.4-9.6h.9v-1.1c0-1.2.1-2.1.4-2.8s.8-1.2 1.5-1.5 1.7-.5 2.9-.5c2.2 0 3.3.5 3.3 1.6 0 .3-.1.6-.3.9-.2.2-.5.4-.8.4-.1 0-.4 0-.8-.1s-.7-.1-.9-.1c-.7 0-1.1.2-1.3.6s-.3 1-.3 1.7v.9h.9c1.4 0 2.2.4 2.2 1.3 0 .6-.2 1-.6 1.2s-.9.2-1.6.2h-.9v10c0 .7-.2 1.3-.5 1.7s-.8.6-1.4.6c-.5 0-1-.2-1.3-.6s-.5-1-.5-1.7v-10h-1c-.6 0-1-.1-1.3-.4s-.5-.6-.5-1c0-.8.7-1.3 1.9-1.3zm18.9 12.9c-.9.7-1.8 1.2-2.6 1.6-.9.4-1.8.5-2.9.5-1 0-1.8-.2-2.5-.6s-1.3-.9-1.7-1.6-.6-1.4-.6-2.1c0-1 .3-1.9 1-2.6s1.5-1.2 2.7-1.5c.2-.1.8-.2 1.8-.4l2.4-.5 2.2-.6c0-1-.2-1.7-.6-2.2s-1.1-.7-2.2-.7c-1 0-1.7.1-2.2.4s-.9.7-1.2 1.2l-.7 1.1c-.1.2-.4.3-.9.3-.4 0-.8-.1-1.1-.4s-.5-.6-.5-1c0-.7.2-1.3.7-1.9s1.2-1.1 2.2-1.5 2.2-.6 3.7-.6c1.7 0 3 .2 3.9.6s1.6 1 2 1.9c.4.8.6 2 .6 3.4v2.2 2.1c0 .7.1 1.4.4 2.2s.4 1.3.4 1.5c0 .4-.2.7-.5 1.1s-.8.5-1.2.5-.8-.2-1.1-.5c-.7-.7-1.1-1.2-1.5-1.9zm-.3-5.5c-.6.2-1.4.4-2.4.6l-2.2.5c-.4.1-.8.3-1.2.6s-.6.7-.6 1.3.2 1.1.6 1.5 1 .6 1.7.6 1.4-.2 2.1-.5c.6-.3 1.1-.7 1.4-1.3s.5-1.5.5-2.8v-.5zm9.5-5.4l3 8.6 3.3-8.9c.3-.7.5-1.2.8-1.5s.6-.4 1.1-.4.9.2 1.2.5.5.7.5 1.1c0 .2 0 .4-.1.6s-.1.4-.2.6-.2.4-.3.7l-3.6 9c-.1.3-.2.6-.4 1s-.3.7-.5 1-.4.5-.7.7-.6.2-1.1.2-1-.1-1.3-.4c-.3-.2-.6-.5-.7-.8-.2-.3-.4-.9-.8-1.7l-3.6-8.9c-.1-.2-.2-.4-.3-.7-.1-.2-.2-.4-.2-.7-.1-.2-.1-.4-.1-.6 0-.3.1-.5.2-.8.2-.3.4-.5.6-.6.3-.2.6-.2.9-.2.6 0 1.1.2 1.3.5.5.3.7.9 1 1.7zm26.4 5.4a10.07 10.07 0 0 1-.5 3.1c-.3.9-.9 1.8-1.5 2.4-.7.7-1.5 1.2-2.4 1.6s-2 .5-3.1.5-2.2-.2-3.1-.6-1.7-.9-2.4-1.6a6.08 6.08 0 0 1-1.5-2.4 10.07 10.07 0 0 1-.5-3.1 10.07 10.07 0 0 1 .5-3.1c.3-.9.9-1.8 1.5-2.4s1.4-1.2 2.4-1.6c.9-.4 2-.5 3.1-.5s2.2.2 3.1.6 1.7.9 2.4 1.6a6.08 6.08 0 0 1 1.5 2.4c.3.9.5 1.9.5 3.1zm-3.8 0c0-1.5-.3-2.7-1-3.6s-1.6-1.3-2.7-1.3c-.7 0-1.4.2-1.9.6s-1 .9-1.3 1.7c-.3.7-.5 1.6-.5 2.6s.1 1.8.4 2.6c.3.7.7 1.3 1.3 1.7s1.2.6 2 .6c1.1 0 2-.4 2.7-1.3s1-2.1 1-3.6zm10.5 2.2v3.1c0 .8-.2 1.3-.5 1.7-.4.4-.8.6-1.4.6-.5 0-1-.2-1.3-.6s-.5-1-.5-1.7v-10.5c0-1.7.6-2.5 1.8-2.5.6 0 1.1.2 1.4.6s.4 1 .5 1.8c.5-.8.9-1.4 1.4-1.8s1.1-.6 1.9-.6 1.6.2 2.3.6 1.1.9 1.1 1.6c0 .5-.2.8-.5 1.1s-.7.4-1 .4c-.1 0-.5-.1-1-.3s-1-.3-1.4-.3c-.6 0-1 .1-1.4.4a3.22 3.22 0 0 0-.8 1.3c-.2.6-.3 1.2-.4 2-.2 1-.2 1.9-.2 3.1zm10.5-11.7c-.5 0-1-.2-1.3-.5-.4-.3-.6-.8-.6-1.4 0-.5.2-1 .6-1.3s.8-.5 1.3-.5.9.2 1.3.5.6.8.6 1.4-.2 1-.6 1.4c-.3.3-.7.4-1.3.4zm1.9 3.9v10.9c0 .8-.2 1.3-.5 1.7-.4.4-.8.6-1.4.6s-1-.2-1.3-.6-.5-1-.5-1.7v-10.8c0-.7.2-1.3.5-1.7s.8-.6 1.3-.6c.6 0 1 .2 1.4.6.3.4.5 1 .5 1.6zm4.1-1.8h.4v-2.3-1.4c0-.3.1-.6.3-.9.1-.3.4-.5.6-.6.3-.2.6-.2.9-.2.5 0 .9.2 1.3.5.3.2.4.5.5.9s.1.8.1 1.5v2.6h1.4c.5 0 .9.1 1.2.4s.4.6.4 1c0 .5-.2.9-.6 1.1s-1 .3-1.7.3h-.6v6.9c0 .6 0 1 .1 1.4s.2.6.3.8c.2.2.5.3.9.3.2 0 .5 0 .9-.1s.7-.1.9-.1c.3 0 .6.1.8.4.2.2.4.5.4.9 0 .6-.3 1.1-1 1.4s-1.6.5-2.9.5c-1.2 0-2.1-.2-2.7-.6s-1-.9-1.2-1.6-.3-1.6-.3-2.8v-7.2h-.5c-.5 0-1-.1-1.2-.4s-.4-.6-.4-1 .1-.7.4-1c.3-.5.7-.7 1.3-.7zm20.3 8.3h-7.4c0 .9.2 1.6.5 2.3s.8 1.1 1.3 1.5 1.2.5 1.8.5a3.73 3.73 0 0 0 1.2-.2c.4-.1.7-.3 1.1-.5l1-.7 1.1-1c.2-.2.5-.2.8-.2.4 0 .7.1.9.3s.4.5.4.9c0 .3-.1.7-.4 1.2s-.7.9-1.2 1.3-1.2.8-2 1c-.8.3-1.7.4-2.8.4-2.4 0-4.3-.7-5.6-2.1s-2-3.3-2-5.6c0-1.1.2-2.1.5-3.1s.8-1.8 1.4-2.4 1.4-1.2 2.3-1.6 2-.5 3.1-.5c1.5 0 2.7.3 3.8.9s1.8 1.4 2.4 2.4c.5 1 .8 2 .8 3 0 .9-.3 1.6-.8 1.8-.4.2-1.2.4-2.2.4zm-7.4-2.2h6.8c-.1-1.3-.4-2.3-1-2.9a3.31 3.31 0 0 0-2.4-1c-.9 0-1.7.3-2.3 1s-.9 1.7-1.1 2.9zM814 381c0 .5-.1 1-.4 1.5s-.7 1-1.3 1.5-1.3.9-2.2 1.2-1.9.4-3 .4c-2.3 0-4.1-.7-5.4-2-1.3-1.4-2-3.2-2-5.5 0-1.5.3-2.9.9-4.1s1.5-2.1 2.6-2.8c1.1-.6 2.5-1 4.1-1 1 0 1.9.1 2.7.4s1.5.7 2.1 1.1c.6.5 1 .9 1.3 1.4s.4 1 .4 1.4c0 .5-.2.8-.5 1.1s-.7.5-1.2.5c-.3 0-.6-.1-.8-.2a6.53 6.53 0 0 1-.7-.8c-.5-.7-.9-1.2-1.4-1.6-.5-.3-1.1-.5-1.9-.5-1.1 0-2 .4-2.7 1.3s-1 2.1-1 3.6c0 .7.1 1.4.3 2s.4 1.1.8 1.5c.3.4.7.7 1.2 1 .5.2 1 .3 1.5.3.8 0 1.4-.2 1.9-.5s1-.9 1.4-1.6a4.31 4.31 0 0 1 .7-1 1.53 1.53 0 0 1 1-.4c.5 0 .8.2 1.1.5.3.5.5.9.5 1.3zm12.8 2.5c-.9.7-1.8 1.2-2.6 1.6-.9.4-1.8.5-2.9.5-1 0-1.8-.2-2.5-.6s-1.3-.9-1.7-1.6-.6-1.4-.6-2.1c0-1 .3-1.9 1-2.6s1.5-1.2 2.7-1.5c.2-.1.8-.2 1.8-.4l2.4-.5 2.2-.6c0-1-.2-1.7-.6-2.2s-1.1-.7-2.2-.7c-1 0-1.7.1-2.2.4s-.9.7-1.2 1.2l-.7 1.1c-.1.2-.4.3-.9.3-.4 0-.8-.1-1.1-.4s-.5-.6-.5-1c0-.7.2-1.3.7-1.9s1.2-1.1 2.2-1.5 2.2-.6 3.7-.6c1.7 0 3 .2 3.9.6s1.6 1 2 1.9c.4.8.6 2 .6 3.4v2.2 2.1c0 .7.1 1.4.4 2.2s.4 1.3.4 1.5c0 .4-.2.7-.5 1.1-.4.3-.8.5-1.2.5s-.8-.2-1.1-.5c-.7-.7-1.1-1.2-1.5-1.9zm-.3-5.5c-.6.2-1.4.4-2.4.6l-2.2.5c-.4.1-.8.3-1.2.6s-.6.7-.6 1.3.2 1.1.6 1.5 1 .6 1.7.6 1.4-.2 2.1-.5c.6-.3 1.1-.7 1.4-1.3s.5-1.5.5-2.8v-.5zm21 3c0 .5-.1 1-.4 1.5s-.7 1-1.3 1.5-1.3.9-2.2 1.2-1.9.4-3 .4c-2.3 0-4.1-.7-5.4-2-1.3-1.4-2-3.2-2-5.5 0-1.5.3-2.9.9-4.1s1.5-2.1 2.6-2.8c1.1-.6 2.5-1 4.1-1 1 0 1.9.1 2.7.4s1.5.7 2.1 1.1c.6.5 1 .9 1.3 1.4s.4 1 .4 1.4c0 .5-.2.8-.5 1.1s-.7.5-1.2.5c-.3 0-.6-.1-.8-.2-.2-.2-.4-.4-.7-.8-.5-.7-.9-1.2-1.4-1.6-.5-.3-1.1-.5-1.9-.5-1.1 0-2 .4-2.7 1.3s-1 2.1-1 3.6c0 .7.1 1.4.3 2s.4 1.1.8 1.5c.3.4.7.7 1.2 1 .5.2 1 .3 1.5.3.8 0 1.4-.2 1.9-.5s1-.9 1.4-1.6a4.31 4.31 0 0 1 .7-1c.3-.2.6-.4 1-.4.5 0 .8.2 1.1.5.4.5.5.9.5 1.3zm6.3-14v5.6c.5-.6.9-1 1.4-1.3s1-.6 1.5-.7c.6-.2 1.1-.2 1.8-.2 1 0 1.8.2 2.5.6s1.3 1 1.7 1.8c.3.5.4 1 .5 1.5s.1 1.2.1 1.9v7.2c0 .8-.2 1.3-.5 1.7s-.8.6-1.4.6c-1.2 0-1.9-.8-1.9-2.3V377c0-1.2-.2-2.1-.5-2.8-.4-.6-1-1-2-1-.7 0-1.3.2-1.8.6s-.9.9-1.2 1.6c-.2.6-.3 1.6-.3 3v5c0 .7-.2 1.3-.5 1.7s-.8.6-1.4.6c-1.2 0-1.9-.8-1.9-2.3V367c0-.8.2-1.3.5-1.7s.8-.6 1.4-.6 1.1.2 1.4.6.6.9.6 1.7zm15.3 1.5c-.5 0-1-.2-1.3-.5-.4-.3-.6-.8-.6-1.4 0-.5.2-1 .6-1.3s.8-.5 1.3-.5.9.2 1.3.5.6.8.6 1.4-.2 1-.6 1.4c-.4.3-.8.4-1.3.4zm1.8 3.9v10.9c0 .8-.2 1.3-.5 1.7-.4.4-.8.6-1.4.6s-1-.2-1.3-.6-.5-1-.5-1.7v-10.8c0-.7.2-1.3.5-1.7s.8-.6 1.3-.6 1 .2 1.4.6.5 1 .5 1.6zm7.4 0v.5c.7-.9 1.4-1.5 2.2-1.9s1.7-.6 2.7-.6 1.9.2 2.7.6 1.4 1 1.8 1.8c.2.5.4 1 .5 1.5s.1 1.2.1 2v7c0 .8-.2 1.3-.5 1.7s-.8.6-1.3.6c-.6 0-1-.2-1.4-.6s-.5-1-.5-1.7V377c0-1.2-.2-2.2-.5-2.8-.3-.7-1-1-2.1-1-.7 0-1.3.2-1.8.6s-1 .9-1.2 1.6c-.2.6-.3 1.6-.3 3.1v4.7c0 .8-.2 1.3-.5 1.7-.4.4-.8.6-1.4.6-.5 0-1-.2-1.3-.6s-.5-1-.5-1.7v-10.9c0-.7.2-1.3.5-1.6s.7-.5 1.3-.5c.3 0 .6.1.9.2s.5.4.6.7c-.1.5 0 .8 0 1.3zm27.4.7V384c0 1.3-.1 2.3-.4 3.2s-.7 1.6-1.3 2.2-1.4 1-2.3 1.3-2.1.4-3.6.4c-1.3 0-2.5-.2-3.5-.5-1-.4-1.8-.8-2.4-1.4s-.8-1.2-.8-1.8c0-.5.2-.8.5-1.1s.7-.4 1.1-.4c.6 0 1 .2 1.4.7.2.2.4.5.6.8s.5.5.7.6c.3.2.6.3.9.4s.8.1 1.3.1c1 0 1.7-.1 2.3-.4.5-.3.9-.7 1.1-1.1s.3-1 .4-1.6.1-1.5.1-2.7c-.6.8-1.2 1.4-2 1.8s-1.7.6-2.7.6c-1.3 0-2.4-.3-3.3-1-.9-.6-1.7-1.5-2.2-2.7a10.19 10.19 0 0 1-.8-4 10.07 10.07 0 0 1 .5-3.1c.3-.9.7-1.7 1.3-2.3s1.2-1.1 2-1.4 1.6-.5 2.5-.5c1.1 0 2 .2 2.8.6s1.5 1.1 2.2 1.9v-.5c0-.7.2-1.2.5-1.5s.7-.5 1.2-.5c.7 0 1.2.2 1.4.7.4.7.5 1.4.5 2.3zm-10.9 4.7c0 1.5.3 2.7 1 3.5a3.22 3.22 0 0 0 2.6 1.2c.6 0 1.2-.2 1.8-.5s1-.8 1.4-1.5c.3-.7.5-1.5.5-2.5 0-1.5-.3-2.7-1-3.6s-1.6-1.3-2.7-1.3a3.22 3.22 0 0 0-2.6 1.2c-.6.9-1 2-1 3.5zm33.9 2.9c0 1-.3 1.9-.8 2.7-.5.7-1.3 1.3-2.2 1.7-1 .4-2.2.6-3.6.6s-2.5-.2-3.5-.6-1.7-.9-2.1-1.6c-.5-.6-.7-1.2-.7-1.9 0-.4.1-.8.4-1.1s.7-.4 1.1-.4.7.1.9.3.4.5.6.8c.4.7.8 1.2 1.4 1.5.5.3 1.3.5 2.2.5.8 0 1.4-.2 1.9-.5s.7-.7.7-1.2c0-.7-.3-1.1-.8-1.4s-1.3-.6-2.5-.9c-1.3-.3-2.4-.7-3.2-1-.8-.4-1.5-.8-2-1.4s-.7-1.3-.7-2.1.2-1.5.7-2.1 1.1-1.2 2-1.6 1.9-.6 3.2-.6c1 0 1.9.1 2.6.3a6.78 6.78 0 0 1 1.9.8c.5.3.9.7 1.2 1.1a1.92 1.92 0 0 1 .4 1.2c0 .4-.1.8-.4 1.1s-.7.4-1.2.4a1.69 1.69 0 0 1-1-.3c-.3-.2-.6-.6-.9-1s-.6-.7-1-.9-.9-.3-1.6-.3-1.2.1-1.7.4-.7.7-.7 1.1.2.7.5 1 .8.5 1.3.6c.6.2 1.3.4 2.3.6 1.2.3 2.1.6 2.9 1 .7.4 1.3.9 1.7 1.4.6.5.7 1.1.7 1.8zm6.7 5.4l.3-.8-4.6-11.7c-.3-.7-.4-1.2-.4-1.5s.1-.6.2-.9.4-.5.7-.7.6-.2.9-.2c.5 0 1 .2 1.2.5.3.3.5.8.7 1.5l3.2 9.3 3-8.6c.2-.7.5-1.2.6-1.6.2-.4.4-.7.6-.8s.5-.2.9-.2c.3 0 .6.1.8.2.3.2.5.4.6.6.1.3.2.5.2.8 0 .2-.1.4-.2.7l-.3 1-4.9 12.9c-.4 1.1-.8 2-1.2 2.7s-.9 1.1-1.6 1.5c-.7.3-1.6.5-2.7.5s-1.9-.1-2.5-.4-.8-.7-.8-1.3c0-.4.1-.8.4-1s.7-.4 1.2-.4c.2 0 .4 0 .6.1s.4.1.6.1c.4 0 .8-.1 1-.2s.5-.4.7-.7c.3-.3.5-.8.8-1.4zm23.6-5.4c0 1-.3 1.9-.8 2.7-.5.7-1.3 1.3-2.2 1.7s-2.2.6-3.6.6-2.5-.2-3.5-.6-1.7-.9-2.1-1.6c-.5-.6-.7-1.2-.7-1.9 0-.4.1-.8.4-1.1s.7-.4 1.1-.4.7.1.9.3.4.5.6.8c.4.7.8 1.2 1.4 1.5.5.3 1.3.5 2.2.5.8 0 1.4-.2 1.9-.5s.7-.7.7-1.2c0-.7-.3-1.1-.8-1.4s-1.3-.6-2.5-.9c-1.3-.3-2.4-.7-3.2-1-.8-.4-1.5-.8-2-1.4s-.7-1.3-.7-2.1.2-1.5.7-2.1 1.1-1.2 2-1.6 1.9-.6 3.2-.6c1 0 1.9.1 2.6.3a6.78 6.78 0 0 1 1.9.8c.5.3.9.7 1.2 1.1a1.92 1.92 0 0 1 .4 1.2c0 .4-.1.8-.4 1.1s-.7.4-1.2.4a1.69 1.69 0 0 1-1-.3c-.3-.2-.6-.6-.9-1s-.6-.7-1-.9-.9-.3-1.6-.3-1.2.1-1.7.4-.7.7-.7 1.1.2.7.5 1 .8.5 1.3.6c.6.2 1.3.4 2.3.6 1.2.3 2.1.6 2.9 1 .7.4 1.3.9 1.7 1.4.5.5.7 1.1.7 1.8zm3.4-10.1h.4v-2.3-1.4c0-.3.1-.6.3-.9.1-.3.4-.5.6-.6a2.39 2.39 0 0 1 .9-.2c.5 0 .9.2 1.3.5.3.2.4.5.5.9s.1.8.1 1.5v2.6h1.4c.5 0 .9.1 1.2.4s.4.6.4 1c0 .5-.2.9-.6 1.1s-1 .3-1.7.3h-.7v6.9c0 .6 0 1 .1 1.4s.2.6.3.8.5.3.9.3c.2 0 .5 0 .9-.1s.7-.1.9-.1c.3 0 .6.1.8.4s.4.5.4.9c0 .6-.3 1.1-1 1.4s-1.6.5-2.9.5c-1.2 0-2.1-.2-2.7-.6s-1-.9-1.2-1.6-.3-1.6-.3-2.8v-7.2h-.5c-.5 0-1-.1-1.2-.4s-.4-.6-.4-1 .1-.7.4-1c.4-.5.8-.7 1.4-.7zm20.3 8.3h-7.4c0 .9.2 1.6.5 2.3s.8 1.1 1.3 1.5 1.2.5 1.8.5a3.73 3.73 0 0 0 1.2-.2c.4-.1.7-.3 1.1-.5s.7-.5 1-.7.7-.6 1.1-1c.2-.2.5-.2.8-.2.4 0 .7.1.9.3s.4.5.4.9c0 .3-.1.7-.4 1.2s-.7.9-1.2 1.3-1.2.8-2 1c-.8.3-1.7.4-2.8.4-2.4 0-4.3-.7-5.6-2.1s-2-3.3-2-5.6c0-1.1.2-2.1.5-3.1s.8-1.8 1.4-2.4c.6-.7 1.4-1.2 2.3-1.6s2-.5 3.1-.5c1.5 0 2.7.3 3.8.9s1.8 1.4 2.4 2.4c.5 1 .8 2 .8 3 0 .9-.3 1.6-.8 1.8s-1.2.4-2.2.4zm-7.4-2.2h6.8c-.1-1.3-.4-2.3-1-2.9a3.31 3.31 0 0 0-2.4-1c-.9 0-1.7.3-2.3 1s-.9 1.7-1.1 2.9zm26.2 1.5v5c0 .8-.2 1.4-.5 1.8-.4.4-.8.6-1.4.6s-1-.2-1.4-.6-.5-1-.5-1.8v-6l-.1-2.2c-.1-.5-.2-1-.5-1.3s-.7-.5-1.4-.5c-1.2 0-2 .4-2.4 1.3s-.6 2.1-.6 3.6v5.1c0 .8-.2 1.4-.5 1.8s-.8.6-1.4.6-1-.2-1.4-.6-.5-1-.5-1.8v-10.8c0-.7.2-1.2.5-1.6s.8-.6 1.3-.6.9.2 1.3.5c.3.3.5.8.5 1.4v.4c.7-.8 1.4-1.4 2.1-1.7s1.6-.6 2.5-.6 1.8.2 2.4.6c.7.4 1.2.9 1.7 1.7.6-.8 1.3-1.3 2-1.7s1.5-.6 2.4-.6c1 0 1.9.2 2.7.6a4.62 4.62 0 0 1 1.7 1.7c.3.7.5 1.8.5 3.2v7.4c0 .8-.2 1.4-.5 1.8s-.8.6-1.4.6-1-.2-1.4-.6-.5-1-.5-1.8v-6.3c0-.8 0-1.5-.1-1.9s-.3-.9-.6-1.2-.8-.5-1.4-.5c-.5 0-1 .1-1.4.4s-.8.7-1 1.2c-.6.7-.7 1.8-.7 3.4zm15 7.4c-.6 0-1.1-.2-1.5-.6s-.6-.9-.6-1.5.2-1 .6-1.4.9-.6 1.5-.6 1.1.2 1.5.6.6.9.6 1.5c0 .7-.2 1.2-.6 1.5-.5.3-1 .5-1.5.5z"/>
    <path opacity=".2" d="M345.6 277.9v1.6c2.5-3.1 5.1-5.3 7.8-6.8 2.7-1.4 5.7-2.2 9.1-2.2 4.1 0 7.8 1 11.2 3.1s6.1 5.2 8.1 9.2 3 8.8 3 14.3c0 4.1-.6 7.8-1.7 11.2s-2.7 6.3-4.7 8.6-4.4 4.1-7.1 5.3-5.7 1.9-8.8 1.9c-3.8 0-7-.8-9.5-2.3-2.6-1.5-5-3.7-7.3-6.7V335c0 5.8-2.1 8.7-6.3 8.7-2.5 0-4.1-.8-4.9-2.3s-1.2-3.7-1.2-6.6V278c0-2.5.5-4.4 1.6-5.6s2.6-1.9 4.5-1.9 3.4.6 4.6 1.9c1 1.3 1.6 3.1 1.6 5.5h0 0zm25.9 19.2c0-3.5-.5-6.5-1.6-9s-2.5-4.4-4.4-5.8-4-2-6.3-2c-3.6 0-6.7 1.4-9.2 4.3s-3.8 7.1-3.8 12.7c0 5.3 1.2 9.4 3.7 12.3s5.6 4.4 9.3 4.4c2.2 0 4.2-.6 6.1-1.9s3.4-3.2 4.5-5.7c1.2-2.5 1.7-5.6 1.7-9.3h0 0zm36.9-38.2v19.6c1.7-1.9 3.3-3.5 4.9-4.6s3.4-2 5.3-2.5c1.9-.6 4-.8 6.2-.8 3.4 0 6.3.7 8.9 2.1s4.6 3.5 6.1 6.2c.9 1.6 1.6 3.4 1.9 5.3.3 2 .5 4.2.5 6.8v25.3c0 2.6-.6 4.7-1.8 6s-2.8 2-4.8 2c-4.4 0-6.5-2.7-6.5-8V294c0-4.2-.6-7.5-1.9-9.8s-3.6-3.4-7.2-3.4c-2.4 0-4.5.7-6.4 2s-3.3 3.2-4.2 5.5c-.7 2-1.1 5.5-1.1 10.5v17.5c0 2.6-.6 4.6-1.8 6s-2.8 2.1-4.9 2.1c-4.4 0-6.5-2.7-6.5-8V259c0-2.7.6-4.7 1.7-6s2.8-2 4.8-2c2.1 0 3.7.7 4.9 2s1.9 3.2 1.9 5.9zm59.2 19v1.6c2.5-3.1 5.1-5.3 7.8-6.8 2.7-1.4 5.7-2.2 9.1-2.2 4.1 0 7.8 1 11.2 3.1s6.1 5.2 8.1 9.2 3 8.8 3 14.3c0 4.1-.6 7.8-1.7 11.2s-2.7 6.3-4.7 8.6-4.4 4.1-7.1 5.3-5.7 1.9-8.8 1.9c-3.8 0-7-.8-9.5-2.3s-5-3.7-7.3-6.7V335c0 5.8-2.1 8.7-6.3 8.7-2.5 0-4.1-.8-4.9-2.3s-1.2-3.7-1.2-6.6V278c0-2.5.5-4.4 1.6-5.6s2.6-1.9 4.5-1.9 3.4.6 4.6 1.9c1 1.3 1.6 3.1 1.6 5.5h0 0zm25.9 19.2c0-3.5-.5-6.5-1.6-9s-2.5-4.4-4.4-5.8-4-2-6.3-2c-3.6 0-6.7 1.4-9.2 4.3s-3.8 7.1-3.8 12.7c0 5.3 1.2 9.4 3.7 12.3s5.6 4.4 9.3 4.4c2.2 0 4.2-.6 6.1-1.9s3.4-3.2 4.5-5.7 1.7-5.6 1.7-9.3h0 0zm85.3 3.5c0 2.3-.6 4.7-1.7 7.3s-2.9 5.2-5.3 7.8-5.4 4.6-9.2 6.2c-3.7 1.6-8 2.4-13 2.4-3.7 0-7.2-.4-10.2-1.1-3.1-.7-5.9-1.8-8.4-3.3s-4.8-3.5-6.9-5.9c-1.9-2.2-3.5-4.7-4.8-7.5s-2.3-5.8-3-8.8c-.7-3.1-1-6.5-1-10 0-5.7.8-10.8 2.5-15.4 1.7-4.5 4-8.4 7.1-11.6s6.7-5.7 10.9-7.3c4.2-1.7 8.6-2.5 13.3-2.5 5.7 0 10.9 1.1 15.4 3.4s7.9 5.1 10.3 8.5 3.6 6.6 3.6 9.6c0 1.6-.6 3.1-1.7 4.4-1.2 1.3-2.6 1.9-4.2 1.9-1.8 0-3.2-.4-4.1-1.3s-1.9-2.4-3.1-4.5c-1.9-3.5-4.1-6.2-6.6-7.9s-5.7-2.6-9.4-2.6c-5.9 0-10.6 2.2-14.1 6.7s-5.3 10.9-5.3 19.1c0 5.5.8 10.1 2.3 13.8 1.6 3.7 3.7 6.4 6.6 8.2 2.8 1.8 6.2 2.7 10 2.7 4.1 0 7.6-1 10.5-3.1s5-5.1 6.5-9c.6-1.9 1.4-3.4 2.3-4.6s2.4-1.8 4.4-1.8c1.7 0 3.2.6 4.4 1.8 1.3 1.2 1.9 2.7 1.9 4.4zm45.4 16.2c-3.2 2.5-6.3 4.4-9.3 5.6s-6.3 1.9-10.1 1.9c-3.4 0-6.4-.7-8.9-2-2.6-1.3-4.5-3.2-5.9-5.4-1.4-2.3-2.1-4.9-2.1-7.5 0-3.6 1.1-6.7 3.4-9.3s5.4-4.3 9.4-5.1c.8-.2 2.9-.6 6.2-1.3l8.6-1.9c2.4-.6 4.9-1.3 7.7-2.1-.2-3.5-.9-6-2.1-7.7s-3.8-2.4-7.7-2.4c-3.4 0-5.9.5-7.6 1.4s-3.1 2.3-4.4 4.2-2.1 3.1-2.6 3.7-1.6.9-3.2.9c-1.5 0-2.8-.5-3.9-1.4-1.1-1-1.6-2.2-1.6-3.7 0-2.3.8-4.6 2.5-6.8s4.2-4 7.7-5.4 7.8-2.1 13-2.1c5.8 0 10.4.7 13.7 2.1s5.7 3.5 7 6.5c1.4 3 2.1 6.9 2.1 11.8v7.9l-.1 7.2c0 2.5.4 5.1 1.2 7.8s1.2 4.4 1.2 5.2c0 1.4-.6 2.6-1.9 3.7s-2.7 1.7-4.3 1.7c-1.4 0-2.7-.6-4-1.9-1.1-1.3-2.5-3.2-4-5.6h0 0zm-.8-19.1c-1.9.7-4.8 1.5-8.5 2.3l-7.7 1.7c-1.4.4-2.8 1.1-4.1 2.2s-1.9 2.6-1.9 4.5c0 2 .8 3.7 2.3 5.1s3.5 2.1 6 2.1c2.6 0 5-.6 7.2-1.7s3.8-2.6 4.9-4.4c1.2-2 1.8-5.3 1.8-9.9v-1.9h0 0zm73.8 10.2c0 1.6-.5 3.4-1.5 5.3s-2.5 3.7-4.5 5.4-4.6 3.1-7.6 4.1c-3.1 1-6.5 1.6-10.4 1.6-8.2 0-14.5-2.4-19.1-7.1-4.6-4.8-6.9-11.1-6.9-19.2 0-5.4 1-10.2 3.1-14.4s5.1-7.4 9.1-9.7 8.7-3.4 14.2-3.4c3.4 0 6.6.5 9.4 1.5s5.3 2.3 7.3 3.9 3.5 3.3 4.6 5.1 1.6 3.5 1.6 5c0 1.6-.6 2.9-1.8 4s-2.6 1.6-4.3 1.6c-1.1 0-2-.3-2.7-.8s-1.5-1.5-2.4-2.7c-1.6-2.5-3.3-4.3-5.1-5.5s-4-1.8-6.7-1.8c-3.9 0-7.1 1.5-9.4 4.6s-3.6 7.2-3.6 12.5c0 2.5.3 4.8.9 6.9s1.5 3.9 2.7 5.3 2.6 2.6 4.2 3.3c1.6.8 3.5 1.1 5.4 1.1 2.6 0 4.9-.6 6.8-1.8s3.6-3.1 5-5.6c.7-1.3 1.6-2.5 2.6-3.5.9-.8 2.1-1.3 3.4-1.3 1.6 0 3 .6 4 1.8s1.7 2.4 1.7 3.8h0 0zm22-49v19.6c1.7-1.9 3.3-3.5 4.9-4.6s3.4-2 5.3-2.5c1.9-.6 4-.8 6.2-.8 3.4 0 6.3.7 8.9 2.1s4.6 3.5 6.1 6.2c.9 1.6 1.6 3.4 1.9 5.3.3 2 .5 4.2.5 6.8v25.3c0 2.6-.6 4.7-1.8 6s-2.8 2-4.8 2c-4.4 0-6.5-2.7-6.5-8V294c0-4.2-.6-7.5-1.9-9.8s-3.6-3.4-7.2-3.4c-2.4 0-4.5.7-6.4 2s-3.3 3.2-4.2 5.5c-.7 2-1.1 5.5-1.1 10.5v17.5c0 2.6-.6 4.6-1.8 6s-2.8 2.1-4.9 2.1c-4.4 0-6.5-2.7-6.5-8V259c0-2.7.6-4.7 1.7-6s2.8-2 4.8-2c2.1 0 3.7.7 4.9 2 1.3 1.2 1.9 3.2 1.9 5.9h0 0zm83.9 41.7h-25.9c0 3 .6 5.7 1.8 7.9s2.7 4 4.7 5.2 4.1 1.7 6.5 1.7c1.6 0 3-.2 4.3-.6s2.6-1 3.8-1.7l3.4-2.5 4-3.7c.7-.6 1.6-.9 2.9-.9 1.4 0 2.5.4 3.3 1.1s1.3 1.8 1.3 3.1c0 1.2-.5 2.6-1.4 4.2s-2.3 3.1-4.2 4.6-4.3 2.7-7.1 3.7-6.1 1.5-9.9 1.5c-8.5 0-15.1-2.4-19.8-7.3-4.7-4.8-7.1-11.4-7.1-19.7 0-3.9.6-7.5 1.7-10.9s2.9-6.2 5.1-8.6 5-4.2 8.2-5.5c3.3-1.3 6.9-1.9 10.9-1.9 5.2 0 9.6 1.1 13.3 3.3s6.5 5 8.3 8.5 2.8 7 2.8 10.6c0 3.3-1 5.5-2.9 6.5s-4.6 1.4-8 1.4h0 0zm-25.9-7.5h24c-.3-4.5-1.5-7.9-3.7-10.1-2.1-2.2-4.9-3.4-8.4-3.4-3.3 0-6 1.1-8.1 3.4s-3.3 5.7-3.8 10.1zm94.3 21.9l-3.4-8.9h-28.9l-3.4 9.1c-1.3 3.6-2.5 6-3.4 7.2s-2.5 1.9-4.6 1.9c-1.8 0-3.4-.7-4.8-2s-2.1-2.8-2.1-4.5c0-1 .2-2 .5-3s.9-2.5 1.6-4.3l18.2-46.1 1.9-4.8c.8-1.9 1.5-3.4 2.3-4.6s1.9-2.2 3.2-3 3-1.1 5-1.1 3.7.4 5 1.1c1.3.8 2.4 1.7 3.2 2.9s1.5 2.5 2.1 3.9l2.2 5.5 18.6 45.8c1.5 3.5 2.2 6 2.2 7.6s-.7 3.2-2.1 4.5c-1.4 1.4-3 2.1-5 2.1-1.1 0-2.1-.2-2.9-.6s-1.5-1-2-1.6-1.1-1.8-1.8-3.2-1.2-2.8-1.6-3.9zM843 295.3h21.2L853.5 266 843 295.3zm89.7 21.4v-1.3c-1.8 2-3.5 3.7-5.3 5-1.7 1.3-3.6 2.2-5.6 2.9s-4.2 1-6.6 1c-3.2 0-6.1-.7-8.8-2s-5-3.3-7-5.7c-2-2.5-3.5-5.4-4.5-8.8s-1.5-7-1.5-10.9c0-8.3 2-14.7 6.1-19.3 4-4.6 9.3-6.9 15.9-6.9 3.8 0 7 .7 9.6 2s5.2 3.3 7.7 6v-19.5c0-2.7.5-4.8 1.6-6.2s2.6-2.1 4.6-2.1 3.5.6 4.6 1.9 1.6 3.2 1.6 5.6v58.3c0 2.5-.6 4.4-1.7 5.7-1.2 1.3-2.7 1.9-4.5 1.9s-3.3-.7-4.5-2-1.7-3.2-1.7-5.6h0 0zm-26-19.4c0 3.6.6 6.6 1.7 9.2 1.1 2.5 2.6 4.4 4.6 5.7 1.9 1.3 4.1 1.9 6.3 1.9 2.3 0 4.4-.6 6.4-1.8 1.9-1.2 3.5-3.1 4.6-5.6s1.7-5.6 1.7-9.4c0-3.5-.6-6.5-1.7-9.1-1.1-2.5-2.7-4.5-4.7-5.8s-4.1-2-6.4-2c-2.4 0-4.6.7-6.5 2.1s-3.4 3.3-4.4 5.9c-1.1 2.5-1.6 5.5-1.6 8.9h0 0zm95.8 1.1V316c0 2.8-.6 4.9-1.9 6.2-1.3 1.4-2.9 2.1-5 2.1-2 0-3.6-.7-4.9-2.1-1.2-1.4-1.9-3.5-1.9-6.2v-21.1l-.3-7.8c-.2-1.9-.8-3.4-1.8-4.5s-2.6-1.8-4.7-1.8c-4.3 0-7.2 1.5-8.6 4.5s-2.1 7.2-2.1 12.8V316c0 2.7-.6 4.8-1.9 6.2-1.2 1.4-2.9 2.1-4.9 2.1s-3.6-.7-4.9-2.1-1.9-3.5-1.9-6.2v-37.8c0-2.5.6-4.4 1.7-5.7s2.7-1.9 4.5-1.9 3.3.6 4.5 1.8 1.8 2.9 1.8 5v1.3c2.3-2.7 4.7-4.8 7.4-6.1 2.6-1.3 5.5-1.9 8.7-1.9 3.3 0 6.2.7 8.6 2s4.4 3.3 5.9 6c2.2-2.7 4.6-4.7 7.2-6s5.5-2 8.5-2c3.6 0 6.7.7 9.3 2.1s4.6 3.5 5.9 6.1c1.1 2.4 1.7 6.2 1.7 11.3V316c0 2.8-.6 4.9-1.9 6.2-1.3 1.4-2.9 2.1-5 2.1-2 0-3.6-.7-4.9-2.1s-1.9-3.5-1.9-6.2v-22.2c0-2.8-.1-5.1-.4-6.8-.2-1.7-.9-3.1-2-4.3s-2.7-1.7-4.8-1.7c-1.7 0-3.4.5-5 1.6-1.6 1-2.8 2.4-3.7 4.2-.9 2-1.3 5.9-1.3 11.6h0 0zm50.4-34c-1.8 0-3.4-.6-4.7-1.7s-2-2.7-2-4.8c0-1.8.7-3.4 2-4.6s2.9-1.8 4.7-1.8c1.7 0 3.3.5 4.6 1.6 1.4 1.1 2 2.7 2 4.8 0 2-.6 3.6-1.9 4.8-1.4 1.1-2.9 1.7-4.7 1.7zm6.6 13.6v38.2c0 2.6-.6 4.7-1.9 6s-2.9 2-4.8 2-3.5-.7-4.7-2.1-1.8-3.4-1.8-6v-37.8c0-2.6.6-4.6 1.8-5.9s2.8-2 4.7-2 3.5.7 4.8 2 1.9 3.3 1.9 5.6h0 0zm25.7-.2v1.6c2.3-3.1 4.9-5.3 7.6-6.8s5.9-2.2 9.5-2.2c3.5 0 6.6.8 9.3 2.3s4.8 3.7 6.2 6.4c.9 1.6 1.4 3.4 1.7 5.2.3 1.9.4 4.3.4 7.2v24.6c0 2.6-.6 4.7-1.8 6s-2.8 2-4.7 2c-2 0-3.6-.7-4.8-2.1s-1.8-3.4-1.8-6v-22c0-4.4-.6-7.7-1.8-10s-3.6-3.5-7.2-3.5c-2.3 0-4.6.7-6.4 2.1-1.9 1.4-3.4 3.3-4.3 5.8-.6 2-1 5.7-1 11V316c0 2.7-.6 4.7-1.9 6-1.2 1.3-2.9 2-4.8 2s-3.5-.7-4.7-2.1-1.8-3.4-1.8-6V278c0-2.5.5-4.4 1.6-5.6s2.6-1.9 4.5-1.9c1.2 0 2.2.3 3.1.8s1.7 1.4 2.3 2.5.8 2.4.8 4h0 0z"/>
    <path fill="#fff" d="M340.8 273.1v1.6c2.5-3.1 5.1-5.3 7.8-6.8 2.7-1.4 5.7-2.2 9.1-2.2 4.1 0 7.8 1 11.2 3.1s6.1 5.2 8.1 9.2 3 8.8 3 14.3c0 4.1-.6 7.8-1.7 11.2s-2.7 6.3-4.7 8.6-4.4 4.1-7.1 5.3-5.7 1.9-8.8 1.9c-3.8 0-7-.8-9.5-2.3-2.6-1.5-5-3.7-7.3-6.7v19.9c0 5.8-2.1 8.7-6.3 8.7-2.5 0-4.1-.8-4.9-2.3s-1.2-3.7-1.2-6.6v-57.1c0-2.5.5-4.4 1.6-5.6s2.6-1.9 4.5-1.9 3.4.6 4.6 1.9c1 1.5 1.6 3.4 1.6 5.8h0 0zm25.9 19.2c0-3.5-.5-6.5-1.6-9s-2.5-4.4-4.4-5.8-4-2-6.3-2c-3.6 0-6.7 1.4-9.2 4.3s-3.8 7.1-3.8 12.7c0 5.3 1.2 9.4 3.7 12.3s5.6 4.4 9.3 4.4c2.2 0 4.2-.6 6.1-1.9s3.4-3.2 4.5-5.7c1.1-2.6 1.7-5.7 1.7-9.3h0 0zm36.8-38.3v19.6c1.7-1.9 3.3-3.5 4.9-4.6s3.4-2 5.3-2.5c1.9-.6 4-.8 6.2-.8 3.4 0 6.3.7 8.9 2.1s4.6 3.5 6.1 6.2c.9 1.6 1.6 3.4 1.9 5.3.3 2 .5 4.2.5 6.8v25.3c0 2.6-.6 4.7-1.8 6s-2.8 2-4.8 2c-4.4 0-6.5-2.7-6.5-8V289c0-4.2-.6-7.5-1.9-9.8s-3.6-3.4-7.2-3.4c-2.4 0-4.5.7-6.4 2s-3.3 3.2-4.2 5.5c-.7 2-1.1 5.5-1.1 10.5v17.5c0 2.6-.6 4.6-1.8 6s-2.8 2.1-4.9 2.1c-4.4 0-6.5-2.7-6.5-8V254c0-2.7.6-4.7 1.7-6s2.8-2 4.8-2c2.1 0 3.7.7 4.9 2s1.9 3.4 1.9 6h0 0zm59.2 19.1v1.6c2.5-3.1 5.1-5.3 7.8-6.8 2.7-1.4 5.7-2.2 9.1-2.2 4.1 0 7.8 1 11.2 3.1s6.1 5.2 8.1 9.2 3 8.8 3 14.3c0 4.1-.6 7.8-1.7 11.2s-2.7 6.3-4.7 8.6-4.4 4.1-7.1 5.3-5.7 1.9-8.8 1.9c-3.8 0-7-.8-9.5-2.3s-5-3.7-7.3-6.7v19.9c0 5.8-2.1 8.7-6.3 8.7-2.5 0-4.1-.8-4.9-2.3s-1.2-3.7-1.2-6.6v-57.1c0-2.5.5-4.4 1.6-5.6s2.6-1.9 4.5-1.9 3.4.6 4.6 1.9c1 1.5 1.6 3.4 1.6 5.8h0 0zm25.9 19.2c0-3.5-.5-6.5-1.6-9s-2.5-4.4-4.4-5.8-4-2-6.3-2c-3.6 0-6.7 1.4-9.2 4.3s-3.8 7.1-3.8 12.7c0 5.3 1.2 9.4 3.7 12.3s5.6 4.4 9.3 4.4c2.2 0 4.2-.6 6.1-1.9s3.4-3.2 4.5-5.7 1.7-5.7 1.7-9.3h0 0zm85.3 3.5c0 2.3-.6 4.7-1.7 7.3s-2.9 5.2-5.3 7.8-5.4 4.6-9.2 6.2c-3.7 1.6-8 2.4-13 2.4-3.7 0-7.2-.4-10.2-1.1-3.1-.7-5.9-1.8-8.4-3.3s-4.8-3.5-6.9-5.9c-1.9-2.2-3.5-4.7-4.8-7.5s-2.3-5.8-3-8.8c-.7-3.1-1-6.5-1-10 0-5.7.8-10.8 2.5-15.4 1.7-4.5 4-8.4 7.1-11.6s6.7-5.7 10.9-7.3c4.2-1.7 8.6-2.5 13.3-2.5 5.7 0 10.9 1.1 15.4 3.4s7.9 5.1 10.3 8.5 3.6 6.6 3.6 9.6c0 1.6-.6 3.1-1.7 4.4-1.2 1.3-2.6 1.9-4.2 1.9-1.8 0-3.2-.4-4.1-1.3s-1.9-2.4-3.1-4.5c-1.9-3.5-4.1-6.2-6.6-7.9s-5.7-2.6-9.4-2.6c-5.9 0-10.6 2.2-14.1 6.7s-5.3 10.9-5.3 19.1c0 5.5.8 10.1 2.3 13.8 1.6 3.7 3.7 6.4 6.6 8.2 2.8 1.8 6.2 2.7 10 2.7 4.1 0 7.6-1 10.5-3.1s5-5.1 6.5-9c.6-1.9 1.4-3.4 2.3-4.6s2.4-1.8 4.4-1.8c1.7 0 3.2.6 4.4 1.8 1.3 1.1 1.9 2.6 1.9 4.4zm45.5 16.2c-3.2 2.5-6.3 4.4-9.3 5.6s-6.3 1.9-10.1 1.9c-3.4 0-6.4-.7-8.9-2-2.4-1.2-4.4-3.1-5.9-5.4-1.4-2.3-2.1-4.9-2.1-7.5 0-3.6 1.1-6.7 3.4-9.3s5.4-4.3 9.4-5.1c.8-.2 2.9-.6 6.2-1.3l8.6-1.9c2.4-.6 4.9-1.3 7.7-2.1-.2-3.5-.9-6-2.1-7.7s-3.8-2.4-7.7-2.4c-3.4 0-5.9.5-7.6 1.4s-3.1 2.3-4.4 4.2-2.1 3.1-2.6 3.7-1.6.9-3.2.9c-1.5 0-2.8-.5-3.9-1.4-1.1-1-1.6-2.2-1.6-3.7 0-2.3.8-4.6 2.5-6.8s4.2-4 7.7-5.4 7.8-2.1 13-2.1c5.8 0 10.4.7 13.7 2.1s5.7 3.5 7 6.5c1.4 3 2.1 6.9 2.1 11.8v7.9l-.1 7.2c0 2.5.4 5.1 1.2 7.8s1.2 4.4 1.2 5.2c0 1.4-.6 2.6-1.9 3.7s-2.7 1.7-4.3 1.7c-1.4 0-2.7-.6-4-1.9-1.2-1.4-2.6-3.2-4-5.6h0 0zm-.9-19.2c-1.9.7-4.8 1.5-8.5 2.3l-7.7 1.7c-1.4.4-2.8 1.1-4.1 2.2s-1.9 2.6-1.9 4.5c0 2 .8 3.7 2.3 5.1s3.5 2.1 6 2.1c2.6 0 5-.6 7.2-1.7s3.8-2.6 4.9-4.4c1.2-2 1.8-5.3 1.8-9.9v-1.9h0 0zm73.8 10.2c0 1.6-.5 3.4-1.5 5.3s-2.5 3.7-4.5 5.4-4.6 3.1-7.6 4.1c-3.1 1-6.5 1.6-10.4 1.6-8.2 0-14.5-2.4-19.1-7.1-4.6-4.8-6.9-11.1-6.9-19.2 0-5.4 1-10.2 3.1-14.4s5.1-7.4 9.1-9.7 8.7-3.4 14.2-3.4c3.4 0 6.6.5 9.4 1.5s5.3 2.3 7.3 3.9 3.5 3.3 4.6 5.1 1.6 3.5 1.6 5c0 1.6-.6 2.9-1.8 4s-2.6 1.6-4.3 1.6c-1.1 0-2-.3-2.7-.8s-1.5-1.5-2.4-2.7c-1.6-2.5-3.3-4.3-5.1-5.5s-4-1.8-6.7-1.8c-3.9 0-7.1 1.5-9.4 4.6s-3.6 7.2-3.6 12.5c0 2.5.3 4.8.9 6.9s1.5 3.9 2.7 5.3 2.6 2.6 4.2 3.3c1.6.8 3.5 1.1 5.4 1.1 2.6 0 4.9-.6 6.8-1.8s3.6-3.1 5-5.6c.7-1.3 1.6-2.5 2.6-3.5.9-.8 2.1-1.3 3.4-1.3 1.6 0 3 .6 4 1.8s1.7 2.5 1.7 3.8h0 0zm22-49v19.6c1.7-1.9 3.3-3.5 4.9-4.6s3.4-2 5.3-2.5c1.9-.6 4-.8 6.2-.8 3.4 0 6.3.7 8.9 2.1s4.6 3.5 6.1 6.2c.9 1.6 1.6 3.4 1.9 5.3.3 2 .5 4.2.5 6.8v25.3c0 2.6-.6 4.7-1.8 6s-2.8 2-4.8 2c-4.4 0-6.5-2.7-6.5-8V289c0-4.2-.6-7.5-1.9-9.8s-3.6-3.4-7.2-3.4c-2.4 0-4.5.7-6.4 2s-3.3 3.2-4.2 5.5c-.7 2-1.1 5.5-1.1 10.5v17.5c0 2.6-.6 4.6-1.8 6s-2.8 2.1-4.9 2.1c-4.4 0-6.5-2.7-6.5-8V254c0-2.7.6-4.7 1.7-6s2.8-2 4.8-2c2.1 0 3.7.7 4.9 2 1.3 1.4 1.9 3.4 1.9 6h0 0zm83.9 41.8h-25.9c0 3 .6 5.7 1.8 7.9s2.7 4 4.7 5.2 4.1 1.7 6.5 1.7c1.6 0 3-.2 4.3-.6s2.6-1 3.8-1.7l3.4-2.5 4-3.7c.7-.6 1.6-.9 2.9-.9 1.4 0 2.5.4 3.3 1.1s1.3 1.8 1.3 3.1c0 1.2-.5 2.6-1.4 4.2s-2.3 3.1-4.2 4.6-4.3 2.7-7.1 3.7-6.1 1.5-9.9 1.5c-8.5 0-15.1-2.4-19.8-7.3-4.7-4.8-7.1-11.4-7.1-19.7 0-3.9.6-7.5 1.7-10.9s2.9-6.2 5.1-8.6 5-4.2 8.2-5.5c3.3-1.3 6.9-1.9 10.9-1.9 5.2 0 9.6 1.1 13.3 3.3s6.5 5 8.3 8.5 2.8 7 2.8 10.6c0 3.3-1 5.5-2.9 6.5s-4.5 1.4-8 1.4h0 0zm-25.9-7.5h24c-.3-4.5-1.5-7.9-3.7-10.1-2.1-2.2-4.9-3.4-8.4-3.4-3.3 0-6 1.1-8.1 3.4s-3.3 5.6-3.8 10.1zm94.3 21.9l-3.4-8.9h-28.9l-3.4 9.1c-1.3 3.6-2.5 6-3.4 7.2s-2.5 1.9-4.6 1.9c-1.8 0-3.4-.7-4.8-2s-2.1-2.8-2.1-4.5c0-1 .2-2 .5-3s.9-2.5 1.6-4.3l18.2-46.1 1.9-4.8c.8-1.9 1.5-3.4 2.3-4.6s1.9-2.2 3.2-3 3-1.1 5-1.1 3.7.4 5 1.1c1.3.8 2.4 1.7 3.2 2.9s1.5 2.5 2.1 3.9l2.2 5.5 18.6 45.8c1.5 3.5 2.2 6 2.2 7.6s-.7 3.2-2.1 4.5c-1.4 1.4-3 2.1-5 2.1-1.1 0-2.1-.2-2.9-.6s-1.5-1-2-1.6c-.5-.7-1.1-1.8-1.8-3.2l-1.6-3.9h0 0zm-28.5-19.8h21.2l-10.7-29.3-10.5 29.3zm89.7 21.5v-1.3c-1.8 2-3.5 3.7-5.3 5-1.7 1.3-3.6 2.2-5.6 2.9s-4.2 1-6.6 1c-3.2 0-6.1-.7-8.8-2s-5-3.3-7-5.7c-2-2.5-3.5-5.4-4.5-8.8s-1.5-7-1.5-10.9c0-8.3 2-14.7 6.1-19.3 4-4.6 9.3-6.9 15.9-6.9 3.8 0 7 .7 9.6 2s5.2 3.3 7.7 6v-19.5c0-2.7.5-4.8 1.6-6.2s2.6-2.1 4.6-2.1 3.5.6 4.6 1.9 1.6 3.2 1.6 5.6v58.3c0 2.5-.6 4.4-1.7 5.7-1.2 1.3-2.7 1.9-4.5 1.9s-3.3-.7-4.5-2-1.7-3.2-1.7-5.6h0 0zm-26-19.5c0 3.6.6 6.6 1.7 9.2 1.1 2.5 2.6 4.4 4.6 5.7 1.9 1.3 4.1 1.9 6.3 1.9 2.3 0 4.4-.6 6.4-1.8 1.9-1.2 3.5-3.1 4.6-5.6s1.7-5.6 1.7-9.4c0-3.5-.6-6.5-1.7-9.1-1.1-2.5-2.7-4.5-4.7-5.8s-4.1-2-6.4-2c-2.4 0-4.6.7-6.5 2.1s-3.4 3.3-4.4 5.9-1.6 5.5-1.6 8.9h0 0zm95.8 1.1v17.6c0 2.8-.6 4.9-1.9 6.2-1.3 1.4-2.9 2.1-5 2.1-2 0-3.6-.7-4.9-2.1-1.2-1.4-1.9-3.5-1.9-6.2V290l-.3-7.8c-.2-1.9-.8-3.4-1.8-4.5s-2.6-1.8-4.7-1.8c-4.3 0-7.2 1.5-8.6 4.5s-2.1 7.2-2.1 12.8v17.9c0 2.7-.6 4.8-1.9 6.2-1.2 1.4-2.9 2.1-4.9 2.1s-3.6-.7-4.9-2.1-1.9-3.5-1.9-6.2v-37.8c0-2.5.6-4.4 1.7-5.7s2.7-1.9 4.5-1.9 3.3.6 4.5 1.8 1.8 2.9 1.8 5v1.3c2.3-2.7 4.7-4.8 7.4-6.1 2.6-1.3 5.5-1.9 8.7-1.9 3.3 0 6.2.7 8.6 2s4.4 3.3 5.9 6c2.2-2.7 4.6-4.7 7.2-6s5.5-2 8.5-2c3.6 0 6.7.7 9.3 2.1s4.6 3.5 5.9 6.1c1.1 2.4 1.7 6.2 1.7 11.3v25.8c0 2.8-.6 4.9-1.9 6.2-1.3 1.4-2.9 2.1-5 2.1-2 0-3.6-.7-4.9-2.1s-1.9-3.5-1.9-6.2v-22.2c0-2.8-.1-5.1-.4-6.8-.2-1.7-.9-3.1-2-4.3s-2.7-1.7-4.8-1.7c-1.7 0-3.4.5-5 1.6-1.6 1-2.8 2.4-3.7 4.2-.8 2-1.3 5.9-1.3 11.6h0 0zm50.5-34c-1.8 0-3.4-.6-4.7-1.7s-2-2.7-2-4.8c0-1.8.7-3.4 2-4.6s2.9-1.8 4.7-1.8c1.7 0 3.3.5 4.6 1.6 1.4 1.1 2 2.7 2 4.8 0 2-.6 3.6-1.9 4.8-1.4 1.1-2.9 1.7-4.7 1.7zm6.5 13.7v38.2c0 2.6-.6 4.7-1.9 6s-2.9 2-4.8 2-3.5-.7-4.7-2.1-1.8-3.4-1.8-6v-37.8c0-2.6.6-4.6 1.8-5.9s2.8-2 4.7-2 3.5.7 4.8 2 1.9 3.2 1.9 5.6h0 0zm25.7-.2v1.6c2.3-3.1 4.9-5.3 7.6-6.8s5.9-2.2 9.5-2.2c3.5 0 6.6.8 9.3 2.3s4.8 3.7 6.2 6.4c.9 1.6 1.4 3.4 1.7 5.2.3 1.9.4 4.3.4 7.2v24.6c0 2.6-.6 4.7-1.8 6s-2.8 2-4.7 2c-2 0-3.6-.7-4.8-2.1s-1.8-3.4-1.8-6v-22c0-4.4-.6-7.7-1.8-10s-3.6-3.5-7.2-3.5c-2.3 0-4.6.7-6.4 2.1-1.9 1.4-3.4 3.3-4.3 5.8-.6 2-1 5.7-1 11v16.6c0 2.7-.6 4.7-1.9 6-1.2 1.3-2.9 2-4.8 2s-3.5-.7-4.7-2.1-1.8-3.4-1.8-6v-38.2c0-2.5.5-4.4 1.6-5.6s2.6-1.9 4.5-1.9c1.2 0 2.2.3 3.1.8s1.7 1.4 2.3 2.5.8 2.7.8 4.3h0 0z"/>
</svg>
