<svg xmlns="http://www.w3.org/2000/svg" xmlns:xlink="http://www.w3.org/1999/xlink" viewBox="0 0 256 256">
    <linearGradient id="A" gradientUnits="userSpaceOnUse" x1="38.671" y1="38.671" x2="220.282" y2="220.282">
        <stop offset="0" stop-color="#3499ff"/>
        <stop offset="1" stop-color="#3a3985"/>
    </linearGradient>
    <path fill="url(#A)" d="M0 128h0C0 57.3 57.3 0 128 0h0c70.7 0 128 57.3 128 128h0c0 70.7-57.3 128-128 128h0C57.3 256 0 198.7 0 128z"/>
    <path opacity=".2" fill="#231f20" d="M172.2 33.9c-.6-.9-1.4-1.4-2.6-1.4H121c-1.1 0-2 .6-2.6 1.7L95.5 80c-.6.9-.3 2 0 2.9.6.9 1.4 1.4 2.6 1.4h15.8l-24.1 53.3c-.6 1.1-.3 2.6.9 3.4.6.3 1.1.6 1.7.6s1.4-.3 1.7-.6l68.8-57.3c.9-.9 1.1-2 .9-3.2-.3-1.4-1.4-2.3-2.6-2.3h-17.5L172 37c.5-.8.8-2 .2-3.1z"/>
    <linearGradient id="B" gradientUnits="userSpaceOnUse" x1="86.45" y1="84" x2="169.55" y2="84">
        <stop offset="0" stop-color="#ffcf1b"/>
        <stop offset="1" stop-color="#ff881b"/>
    </linearGradient>
    <path fill="url(#B)" d="M169.2 30.9c-.6-.9-1.4-1.4-2.6-1.4H118c-1.1 0-2 .6-2.6 1.7L92.5 77c-.6.9-.3 2 0 2.9.6.9 1.4 1.4 2.6 1.4h15.8l-24.1 53.3c-.6 1.1-.3 2.6.9 3.4.6.3 1.1.6 1.7.6s1.4-.3 1.7-.6l68.8-57.3c.9-.9 1.1-2 .9-3.2-.3-1.4-1.4-2.3-2.6-2.3h-17.5L169 34c.5-.8.8-2 .2-3.1z"/>
    <g opacity=".2" fill="#231f20">
        <use xlink:href="#D"/>
        <use xlink:href="#E"/>
        <path d="M192 206.3l-2.4-6.6h-20.7l-2.4 6.7c-1 2.6-1.8 4.4-2.4 5.3-.7.9-1.8 1.4-3.3 1.4-1.3 0-2.4-.5-3.4-1.5s-1.5-2.1-1.5-3.3a8.33 8.33 0 0 1 .3-2.2c.2-.8.6-1.8 1.1-3.2l13.1-34.1 1.3-3.5a15.35 15.35 0 0 1 1.7-3.4c.6-.9 1.4-1.6 2.3-2.2 1-.6 2.2-.8 3.6-.8s2.6.3 3.6.8 1.7 1.3 2.3 2.2 1.1 1.8 1.5 2.8l1.5 4.1 13.3 33.9c1 2.6 1.6 4.5 1.6 5.6 0 1.2-.5 2.3-1.5 3.3s-2.2 1.5-3.6 1.5c-.8 0-1.5-.1-2.1-.4s-1.1-.7-1.5-1.2-.8-1.3-1.3-2.4l-1.1-2.8zm-20.5-14.6h15.2L179 170l-7.5 21.7z"/>
    </g>
    <g fill="#fff">
        <use xlink:href="#D" x="-3" y="-3"/>
        <use xlink:href="#E" x="-3" y="-3"/>
        <path d="M189 203.3l-2.4-6.6h-20.7l-2.4 6.7c-1 2.6-1.8 4.4-2.4 5.3-.7.9-1.8 1.4-3.3 1.4-1.3 0-2.4-.5-3.4-1.5s-1.5-2.1-1.5-3.3a8.33 8.33 0 0 1 .3-2.2c.2-.8.6-1.8 1.1-3.2l13.1-34.1 1.3-3.5a15.35 15.35 0 0 1 1.7-3.4c.6-.9 1.4-1.6 2.3-2.2 1-.6 2.2-.8 3.6-.8s2.6.3 3.6.8 1.7 1.3 2.3 2.2 1.1 1.8 1.5 2.8l1.5 4.1 13.3 33.9c1 2.6 1.6 4.5 1.6 5.6 0 1.2-.5 2.3-1.5 3.3s-2.2 1.5-3.6 1.5c-.8 0-1.5-.1-2.1-.4s-1.1-.7-1.5-1.2-.8-1.3-1.3-2.4l-1.1-2.8zm-20.5-14.6h15.2L176 167l-7.5 21.7z"/>
    </g>
    <defs>
        <path id="D" d="M78.8 191.8h-9.5v14.9c0 2.1-.5 3.7-1.5 4.8s-2.2 1.6-3.7 1.6c-1.6 0-2.8-.5-3.8-1.6s-1.4-2.7-1.4-4.8v-40.5c0-2.3.5-4 1.6-5s2.7-1.5 5-1.5h13.3c3.9 0 6.9.3 9.1.9 2.1.6 3.9 1.6 5.4 3s2.7 3.1 3.5 5.1 1.2 4.3 1.2 6.8c0 5.3-1.6 9.4-4.8 12.2-3.3 2.7-8.1 4.1-14.4 4.1zm-2.5-24.1h-7v16h7c2.4 0 4.5-.3 6.1-.8s2.9-1.4 3.7-2.6c.9-1.2 1.3-2.8 1.3-4.7 0-2.3-.7-4.2-2-5.7-1.4-1.4-4.5-2.2-9.1-2.2z"/>
        <path id="E" d="M150 195.7c0 1.7-.4 3.5-1.2 5.4s-2.1 3.9-3.8 5.7c-1.7 1.9-3.9 3.4-6.6 4.6s-5.8 1.8-9.3 1.8c-2.7 0-5.1-.3-7.3-.8s-4.2-1.3-6-2.5c-1.8-1.1-3.5-2.6-5-4.4a25.41 25.41 0 0 1-3.4-5.5c-1-2-1.7-4.2-2.1-6.5s-.7-4.8-.7-7.4c0-4.2.6-8 1.8-11.4 1.2-3.3 2.9-6.2 5.1-8.6s4.8-4.2 7.8-5.4 6.2-1.9 9.6-1.9c4.1 0 7.8.8 11 2.5s5.7 3.8 7.4 6.3 2.6 4.9 2.6 7.1c0 1.2-.4 2.3-1.3 3.2-.8.9-1.8 1.4-3 1.4-1.3 0-2.3-.3-3-1-.7-.6-1.4-1.8-2.2-3.3-1.3-2.6-2.9-4.5-4.8-5.8-1.8-1.3-4.1-1.9-6.7-1.9-4.2 0-7.6 1.7-10.1 5s-3.8 8-3.8 14.1c0 4.1.6 7.5 1.7 10.2s2.7 4.7 4.7 6.1c2 1.3 4.4 2 7.2 2 3 0 5.5-.8 7.5-2.3 2.1-1.5 3.6-3.7 4.6-6.7a11.96 11.96 0 0 1 1.6-3.4c.6-.9 1.7-1.3 3.1-1.3 1.2 0 2.3.4 3.2 1.3 1 1 1.4 2.1 1.4 3.4z"/>
    </defs>
</svg>
