<svg xmlns="http://www.w3.org/2000/svg" fill="currentColor" viewBox="0 0 16 16">
    <path d="M7.2 14.7c0 .5-.4.9-.9.9s-.9-.4-.9-.9.4-.9.9-.9.9.4.9.9zm2.5-.9c-.5 0-.9.4-.9.9s.4.9.9.9.9-.4.9-.9-.4-.9-.9-.9zM15.2.3h-3.6C10.9.3 8.3 4.9 8 4.9l-.3-.3c-.2-.2-.2-.3-.4-.6C6.4 2.7 5 .6 4.5.3h0 0H.8C-.5 8.2.2 15.6.2 15.6h3.9v-.1h0 0C3.7 13.7 3 8.6 3 6h0 0v-.1-.1h0v-.1h0 0 0 0 0 0 0 0 0 0 0 0 0 0 0 0 0 0 0c.1-.3.2-.4.3-.5.1 0 .1.1.3.3.9 1.3 3.1 7.4 3.1 7.4s.6-.1 1.2-.1c.4 0 .8 0 1.2.1.1-.2 2.7-7.6 3.3-7.7 1 0-.1 7.9-.5 10.6h0v.1.1h0v.1h0v.1.1h3.9c0-.7.7-8.1-.6-16h0z"/>
</svg>
