<svg xmlns="http://www.w3.org/2000/svg" fill="currentColor" viewBox="0 0 16 16">
    <path d="M15 5H1a.94.94 0 0 1-1-1V2a.94.94 0 0 1 1-1h14a.94.94 0 0 1 1 1v2a.94.94 0 0 1-1 1zm-1.5-2.8c-.4 0-.8.3-.8.8s.3.8.8.8.8-.3.8-.8-.4-.8-.8-.8zm-2 0c-.4 0-.8.3-.8.8s.3.8.8.8.8-.3.8-.8-.4-.8-.8-.8zM15 10H1a.94.94 0 0 1-1-1V7a.94.94 0 0 1 1-1h14a.94.94 0 0 1 1 1v2a.94.94 0 0 1-1 1zm-1.5-2.8c-.4 0-.8.3-.8.8s.3.8.8.8.8-.3.8-.8-.4-.8-.8-.8zm-2 0c-.4 0-.8.3-.8.8s.3.8.8.8.8-.3.8-.8-.4-.8-.8-.8zM15 15H1a.94.94 0 0 1-1-1v-2a.94.94 0 0 1 1-1h14a.94.94 0 0 1 1 1v2a.94.94 0 0 1-1 1zm-1.5-2.8c-.4 0-.8.3-.8.8s.3.8.8.8.8-.3.8-.8-.4-.8-.8-.8zm-2 0c-.4 0-.8.3-.8.8s.3.8.8.8.8-.3.8-.8-.4-.8-.8-.8z"/>
</svg>
