<svg xmlns="http://www.w3.org/2000/svg" viewBox="0 0 512 64.2">
    <path opacity=".2" d="M49 2.6c-.4-.5-.8-.8-1.5-.8H19.7c-.6 0-1.1.4-1.5 1L5.1 28.9c-.4.5-.2 1.1 0 1.7.4.5.8.8 1.5.8h9L1.8 61.9c-.4.6-.2 1.5.5 1.9.4.2.6.4 1 .4s.7-.1 1-.4L43.7 31c.5-.5.6-1.1.5-1.8-.2-.8-.8-1.3-1.5-1.3h-10L48.9 4.3c.3-.4.4-1.1.1-1.7z"/>
    <linearGradient id="A" gradientUnits="userSpaceOnUse" x1="-.004" y1="31.25" x2="47.524" y2="31.25">
        <stop offset="0" stop-color="#ffcf1b"/>
        <stop offset="1" stop-color="#ff881b"/>
    </linearGradient>
    <path fill="url(#A)" d="M47.3.8c-.3-.5-.8-.8-1.4-.8H18c-.6 0-1.1.4-1.5 1l-13 26.2c-.4.5-.2 1.1 0 1.7.4.5.8.8 1.5.8h9L.2 60.2c-.4.6-.2 1.5.5 1.9.4.2.6.4 1 .4s.7-.1 1-.4l39.4-32.8c.5-.5.6-1.1.5-1.8-.2-.8-.8-1.3-1.5-1.3H31L47.2 2.6c.3-.5.5-1.2.1-1.8z"/>
    <path opacity=".2" d="M64.1 21.7v.9c1.4-1.8 2.9-3.1 4.5-3.9s3.3-1.3 5.3-1.3c2.4 0 4.5.6 6.5 1.8s3.5 3 4.7 5.3 1.7 5.1 1.7 8.3c0 2.4-.3 4.5-1 6.5-.6 2-1.6 3.6-2.7 5-1.2 1.3-2.5 2.4-4.1 3.1s-3.3 1.1-5.1 1.1c-2.2 0-4-.5-5.5-1.3-1.5-.9-2.9-2.1-4.2-3.9v11.5c0 3.4-1.2 5-3.6 5-1.4 0-2.4-.5-2.8-1.3s-.8-2.2-.8-3.9V21.8c0-1.4.3-2.5.9-3.2s1.5-1.1 2.6-1.1 2 .3 2.7 1.1c.6.7.9 1.8.9 3.1h0 0zm15 11.2c0-2-.3-3.8-.9-5.2s-1.4-2.5-2.5-3.4c-1.1-.8-2.3-1.2-3.6-1.2-2.1 0-3.9.8-5.3 2.5s-2.2 4.1-2.2 7.3c0 3.1.7 5.4 2.1 7.1s3.2 2.5 5.4 2.5c1.3 0 2.4-.3 3.5-1.1s2-1.9 2.6-3.3.9-3.2.9-5.2h0zm21.4-22.2V22c1-1.1 1.9-2 2.8-2.7.9-.6 2-1.2 3.1-1.4 1.2-.3 2.4-.5 3.6-.5 2 0 3.6.4 5.1 1.2s2.7 2 3.5 3.6c.5 1 .9 2 1.1 3.1.2 1.2.3 2.4.3 3.9v14.6c0 1.5-.3 2.7-1 3.5s-1.6 1.2-2.8 1.2c-2.5 0-3.8-1.6-3.8-4.6V31.1c0-2.4-.3-4.3-1.1-5.7s-2.1-2-4.2-2c-1.4 0-2.6.4-3.7 1.2s-1.9 1.9-2.4 3.2c-.4 1.2-.6 3.2-.6 6.1V44c0 1.5-.3 2.7-1 3.5s-1.6 1.2-2.8 1.2c-2.5 0-3.8-1.6-3.8-4.6V10.8c0-1.6.3-2.7 1-3.5s1.6-1.2 2.8-1.2 2.1.4 2.8 1.2 1.1 1.9 1.1 3.4h0zm34.2 11v.9c1.4-1.8 2.9-3.1 4.5-3.9s3.3-1.3 5.3-1.3c2.4 0 4.5.6 6.5 1.8s3.5 3 4.7 5.3 1.7 5.1 1.7 8.3c0 2.4-.3 4.5-1 6.5s-1.6 3.6-2.7 5c-1.2 1.3-2.5 2.4-4.1 3.1s-3.3 1.1-5.1 1.1c-2.2 0-4-.5-5.5-1.3s-2.9-2.1-4.2-3.9v11.5c0 3.4-1.2 5-3.6 5-1.4 0-2.4-.5-2.8-1.3s-.7-2.1-.7-3.8V21.8c0-1.4.3-2.5.9-3.2s1.5-1.1 2.6-1.1 2 .3 2.7 1.1c.5.7.8 1.8.8 3.1h0 0 0 0zm15 11.2c0-2-.3-3.8-.9-5.2s-1.4-2.5-2.5-3.4c-1.1-.8-2.3-1.2-3.6-1.2-2.1 0-3.9.8-5.3 2.5s-2.2 4.1-2.2 7.3c0 3.1.7 5.4 2.1 7.1s3.2 2.5 5.4 2.5c1.3 0 2.4-.3 3.5-1.1s2-1.9 2.6-3.3c.5-1.3.9-3.2.9-5.2h0 0zm49.3 2c0 1.3-.3 2.7-1 4.2-.6 1.5-1.7 3-3.1 4.5s-3.1 2.7-5.3 3.6c-2.1.9-4.6 1.4-7.5 1.4-2.1 0-4.2-.2-5.9-.6-1.8-.4-3.4-1-4.9-1.9-1.4-.9-2.8-2-4-3.4-1.1-1.3-2-2.7-2.8-4.3s-1.3-3.4-1.7-5.1c-.4-1.8-.6-3.8-.6-5.8 0-3.3.5-6.2 1.4-8.9 1-2.6 2.3-4.9 4.1-6.7 1.8-1.9 3.9-3.3 6.3-4.2 2.4-1 5-1.4 7.7-1.4 3.3 0 6.3.6 8.9 2s4.6 2.9 6 4.9 2.1 3.8 2.1 5.6c0 .9-.3 1.8-1 2.5-.6.7-1.5 1.1-2.4 1.1-1 0-1.9-.2-2.4-.8s-1.1-1.4-1.8-2.6c-1.1-2-2.4-3.6-3.8-4.6s-3.3-1.5-5.4-1.5c-3.4 0-6.1 1.3-8.2 3.9s-3.1 6.3-3.1 11c0 3.2.5 5.8 1.3 8 .9 2.1 2.1 3.7 3.8 4.7 1.6 1 3.6 1.6 5.8 1.6 2.4 0 4.4-.6 6.1-1.8s2.9-2.9 3.8-5.2c.3-1 .7-1.9 1.3-2.7.5-.7 1.4-1 2.5-1 1 0 1.9.3 2.5 1 1 .6 1.3 1.5 1.3 2.5h0 0 0zm26.3 9.3c-1.9 1.4-3.6 2.5-5.4 3.2-1.7.7-3.6 1.1-5.8 1.1-2 0-3.7-.4-5.1-1.2-1.5-.8-2.6-1.9-3.4-3.1-.8-1.3-1.2-2.8-1.2-4.3 0-2.1.6-3.9 2-5.4 1.3-1.5 3.1-2.5 5.4-2.9l3.6-.8 5-1.1c1.4-.3 2.8-.8 4.5-1.2-.1-2-.5-3.5-1.2-4.5s-2.2-1.4-4.5-1.4c-2 0-3.4.3-4.4.8s-1.8 1.3-2.5 2.4l-1.5 2.1s-.9.5-1.9.5c-.9 0-1.6-.3-2.3-.8-.6-.6-.9-1.3-.9-2.1 0-1.3.5-2.7 1.4-3.9s2.4-2.3 4.5-3.1c2-.8 4.5-1.2 7.5-1.2 3.4 0 6 .4 7.9 1.2s3.3 2 4 3.8c.8 1.7 1.2 4 1.2 6.8v4.6l-.1 4.2c0 1.4.2 2.9.7 4.5s.7 2.5.7 3c0 .8-.3 1.5-1.1 2.1s-1.6 1-2.5 1c-.8 0-1.6-.3-2.3-1.1-.6-.7-1.5-1.8-2.3-3.2h0 0 0 0zm-.5-11c-1.1.4-2.8.9-4.9 1.3l-4.5 1c-.8.2-1.6.6-2.4 1.3-.8.6-1.1 1.5-1.1 2.6 0 1.2.5 2.1 1.3 2.9.9.8 2 1.2 3.5 1.2s2.9-.3 4.2-1c1.2-.5 2.1-1.4 2.8-2.5.7-1.2 1-3.1 1-5.7l.1-1.1h0 0 0 0zm42.7 5.9c0 .9-.3 2-.9 3.1s-1.4 2.1-2.6 3.1-2.7 1.8-4.4 2.4c-1.8.6-3.8.9-6 .9-4.7 0-8.4-1.4-11-4.1-2.7-2.8-4-6.4-4-11.1 0-3.1.6-5.9 1.8-8.3s2.9-4.3 5.3-5.6c2.3-1.3 5-2 8.2-2 2 0 3.8.3 5.4.9s3.1 1.3 4.2 2.3c1.2.9 2 1.9 2.7 2.9s.9 2 .9 2.9-.3 1.7-1 2.3-1.5.9-2.5.9c-.6 0-1.2-.2-1.6-.5s-.9-.9-1.4-1.6c-.9-1.4-1.9-2.5-2.9-3.2s-2.3-1-3.9-1c-2.3 0-4.1.9-5.4 2.7s-2.1 4.2-2.1 7.2c0 1.4.2 2.8.5 4 .3 1.1.8 2.2 1.6 3.1.7.8 1.5 1.5 2.4 1.9.9.5 2 .6 3.1.6 1.5 0 2.8-.3 3.9-1s2.1-1.8 2.9-3.2c.4-.8.9-1.4 1.5-2 .5-.5 1.2-.8 2-.8.9 0 1.7.3 2.3 1s1 1.4 1 2.2h0 0 0zm12.7-28.3v11.3c1-1.1 1.9-2 2.8-2.7a7.27 7.27 0 0 1 3.1-1.4c1.2-.3 2.4-.5 3.6-.5 2 0 3.6.4 5.1 1.2s2.7 2 3.5 3.6c.5 1 .9 2 1.1 3.1.2 1.2.3 2.4.3 3.9V44c0 1.5-.3 2.7-1 3.5s-1.6 1.2-2.8 1.2c-2.5 0-3.8-1.6-3.8-4.6v-13c0-2.4-.3-4.3-1.1-5.7-.8-1.3-2.1-2-4.2-2-1.4 0-2.6.4-3.7 1.2s-1.9 1.9-2.4 3.2c-.4 1.2-.6 3.2-.6 6.1V44c0 1.5-.3 2.7-1 3.5s-1.6 1.2-2.8 1.2c-2.5 0-3.8-1.6-3.8-4.6V10.8c0-1.6.3-2.7 1-3.5.6-.8 1.6-1.2 2.8-1.2s2.1.4 2.8 1.2c.8.7 1.1 1.9 1.1 3.5h0 0zm48.6 24.1h-15c0 1.7.3 3.3 1 4.6s1.6 2.3 2.7 3 2.4 1 3.8 1c.9 0 1.7-.1 2.5-.3s1.5-.6 2.2-1l2-1.4 2.3-2.1c.4-.3.9-.5 1.7-.5s1.4.2 1.9.6.8 1 .8 1.8c0 .7-.3 1.5-.8 2.4s-1.3 1.8-2.4 2.7-2.5 1.6-4.1 2.1c-1.6.6-3.5.9-5.7.9-4.9 0-8.7-1.4-11.5-4.2-2.7-2.8-4.1-6.6-4.1-11.4 0-2.3.3-4.3 1-6.3.6-2 1.7-3.6 2.9-5 1.3-1.4 2.9-2.4 4.7-3.2 1.9-.8 4-1.1 6.3-1.1 3 0 5.6.6 7.7 1.9s3.8 2.9 4.8 4.9 1.6 4 1.6 6.1c0 1.9-.6 3.2-1.7 3.8-1.1.4-2.7.7-4.6.7h0 0 0 0zm-15-4.4h13.9c-.2-2.6-.9-4.6-2.1-5.8-1.2-1.3-2.8-2-4.9-2-1.9 0-3.5.6-4.7 2-1.2 1.3-1.9 3.3-2.2 5.8h0 0zm54.5 12.7l-2-5.1h-16.7l-2 5.3c-.8 2.1-1.4 3.5-2 4.2-.5.7-1.4 1.1-2.7 1.1-1 0-2-.4-2.8-1.2s-1.2-1.6-1.2-2.6c0-.6.1-1.2.3-1.7s.5-1.4.9-2.5L350.6 14l1.1-2.8c.5-1.1.9-2 1.3-2.7.5-.7 1.1-1.3 1.9-1.7.8-.5 1.7-.6 2.9-.6s2.1.2 2.9.6c.8.5 1.4 1 1.9 1.7s.9 1.4 1.2 2.3l1.3 3.2L376 40.4c.9 2 1.3 3.5 1.3 4.4s-.4 1.9-1.2 2.6c-.8.8-1.7 1.2-2.9 1.2-.6 0-1.2-.1-1.7-.3s-.9-.6-1.2-.9-.6-1-1-1.9c-.5-.8-.7-1.7-1-2.3h0 0zm-16.5-11.4h12.3l-6.2-16.9-6.1 16.9h0 0zm51.9 12.3v-.8c-.9 1.1-1.9 2.1-3.1 2.9-1 .8-2.1 1.3-3.2 1.7-1.2.4-2.4.6-3.8.6a11.25 11.25 0 0 1-5.1-1.2c-1.6-.8-2.9-1.9-4-3.3-1.2-1.4-2-3.1-2.6-5.1s-.9-4-.9-6.3c0-4.8 1.2-8.5 3.5-11.2s5.4-4 9.2-4c2.2 0 4 .4 5.6 1.2 1.5.8 3 1.9 4.5 3.5V10.9c0-1.6.3-2.8.9-3.6s1.5-1.2 2.7-1.2 2 .3 2.7 1.1c.6.8.9 1.9.9 3.2v33.7c0 1.4-.3 2.5-1 3.3s-1.6 1.1-2.6 1.1-1.9-.4-2.6-1.2c-.8-.6-1.1-1.8-1.1-3.2h0 0zm-15-11.2c0 2.1.3 3.8 1 5.3.6 1.4 1.5 2.5 2.7 3.3 1.1.8 2.4 1.1 3.6 1.1 1.3 0 2.5-.3 3.7-1 1.1-.7 2-1.8 2.7-3.2.6-1.4 1-3.2 1-5.4 0-2-.3-3.8-1-5.3-.6-1.4-1.6-2.6-2.7-3.4-1.2-.8-2.4-1.2-3.7-1.2-1.4 0-2.7.4-3.8 1.2-1.2.8-2.1 2-2.5 3.4-.7 1.6-1 3.3-1 5.2h0 0 0 0zm55.4.6v10.2c0 1.6-.3 2.8-1.1 3.6s-1.7 1.2-2.9 1.2-2.1-.4-2.8-1.2-1.1-2-1.1-3.6V31.5L436 27c-.1-1.1-.5-2-1-2.6-.6-.6-1.5-1-2.7-1-2.5 0-4.2.9-5 2.6s-1.2 4.2-1.2 7.4v10.4c0 1.6-.3 2.8-1.1 3.6-.7.8-1.7 1.2-2.8 1.2s-2.1-.4-2.8-1.2c-.8-.8-1.1-2-1.1-3.6V21.9c0-1.4.3-2.5 1-3.3.6-.8 1.6-1.1 2.6-1.1s1.9.3 2.6 1 1 1.7 1 2.9v.8c1.3-1.6 2.7-2.8 4.3-3.5 1.5-.8 3.2-1.1 5-1.1 1.9 0 3.6.4 5 1.2s2.5 1.9 3.4 3.5c1.3-1.6 2.7-2.7 4.2-3.5s3.2-1.2 4.9-1.2c2.1 0 3.9.4 5.4 1.2s2.7 2 3.4 3.5c.6 1.4 1 3.6 1 6.5v14.9c0 1.6-.3 2.8-1.1 3.6s-1.7 1.2-2.9 1.2-2.1-.4-2.8-1.2c-.8-.8-1.1-2-1.1-3.6V30.9c0-1.3-.1-2.6-.2-3.9-.1-1-.5-1.8-1.2-2.5-.6-.7-1.6-1-2.8-1a5.21 5.21 0 0 0-2.9.9 6.11 6.11 0 0 0-2.1 2.4c-.7 1.3-.9 3.5-.9 6.7h0 0 0 0zm29.1-19.6c-1 0-2-.3-2.7-1s-1.2-1.6-1.2-2.8c0-1 .4-2 1.2-2.7.7-.7 1.7-1 2.7-1s1.9.3 2.7.9 1.2 1.6 1.2 2.8-.3 2.1-1.1 2.8c-.8.6-1.7 1-2.8 1h0 0 0zm3.9 7.9v22.1c0 1.5-.3 2.7-1.1 3.5s-1.7 1.2-2.8 1.2-2-.4-2.7-1.2-1-2-1-3.5V22c0-1.5.3-2.7 1-3.4s1.6-1.2 2.7-1.2 2 .4 2.8 1.2c.7.7 1.1 1.9 1.1 3.2h0zm14.8-.2v.9c1.3-1.8 2.8-3.1 4.4-3.9 1.6-.9 3.4-1.3 5.5-1.3 2 0 3.8.5 5.4 1.3 1.6.9 2.8 2.1 3.6 3.7.5.9.8 2 1 3 .2 1.1.2 2.5.2 4.2v14.2c0 1.5-.3 2.7-1 3.5s-1.6 1.2-2.7 1.2c-1.2 0-2.1-.4-2.8-1.2s-1-2-1-3.5V31c0-2.5-.3-4.5-1-5.8s-2.1-2-4.2-2c-1.3 0-2.7.4-3.7 1.2-1.2.8-2.1 2-2.5 3.4-.3 1.2-.6 3.3-.6 6.4v9.6c0 1.6-.3 2.7-1.1 3.5-.7.8-1.7 1.2-2.8 1.2s-2-.4-2.7-1.2-1-2-1-3.5v-22c0-1.4.3-2.5.9-3.2s1.5-1.1 2.6-1.1c.7 0 1.3.2 1.8.5s1 .8 1.3 1.4.4 1.3.4 2.2h0 0 0 0z"/>
    <linearGradient id="B" gradientUnits="userSpaceOnUse" x1="55.5" y1="31.3" x2="510.4" y2="31.3">
        <stop offset="0" stop-color="#3499ff"/>
        <stop offset="1" stop-color="#3a3985"/>
    </linearGradient>
    <path fill="url(#B)" d="M62.5 20.1v.9c1.4-1.8 2.9-3.1 4.5-3.9s3.3-1.3 5.3-1.3c2.4 0 4.5.6 6.5 1.8s3.5 3 4.7 5.3 1.7 5.1 1.7 8.3c0 2.4-.3 4.5-1 6.5-.6 2-1.6 3.6-2.7 5-1.2 1.3-2.5 2.4-4.1 3.1s-3.3 1.1-5.1 1.1c-2.2 0-4-.5-5.5-1.3-1.5-.9-2.9-2.1-4.2-3.9v11.5c0 3.4-1.2 5-3.6 5-1.4 0-2.4-.5-2.8-1.3s-.7-2.1-.7-3.8V20c0-1.4.3-2.5.9-3.2s1.5-1.1 2.6-1.1 2 .3 2.7 1.1c.5.8.8 1.9.8 3.3h0 0zm15 11.1c0-2-.3-3.8-.9-5.2s-1.4-2.5-2.5-3.4c-1.1-.8-2.3-1.2-3.6-1.2-2.1 0-3.9.8-5.3 2.5S63 28 63 31.2c0 3.1.7 5.4 2.1 7.1s3.2 2.5 5.4 2.5c1.3 0 2.4-.3 3.5-1.1s2-1.9 2.6-3.3c.5-1.3.9-3.1.9-5.2h0zM98.8 9.1v11.3c1-1.1 1.9-2 2.8-2.7.9-.6 2-1.2 3.1-1.4 1.2-.3 2.4-.5 3.6-.5 2 0 3.6.4 5.1 1.2s2.7 2 3.5 3.6c.5 1 .9 2 1.1 3.1.2 1.2.3 2.4.3 3.9v14.6c0 1.5-.3 2.7-1 3.5s-1.6 1.2-2.8 1.2c-2.5 0-3.8-1.6-3.8-4.6v-13c0-2.4-.3-4.3-1.1-5.7s-2.1-2-4.2-2c-1.4 0-2.6.4-3.7 1.2s-1.9 1.9-2.4 3.2c-.4 1.2-.6 3.2-.6 6.1v10.1c0 1.5-.3 2.7-1 3.5s-1.6 1.2-2.8 1.2c-2.5 0-3.8-1.6-3.8-4.6V9.1c0-1.6.3-2.7 1-3.5.6-.8 1.6-1.2 2.8-1.2s2.1.4 2.8 1.2 1.1 1.9 1.1 3.5h0 0zm34.2 11v.9c1.4-1.8 2.9-3.1 4.5-3.9s3.3-1.3 5.3-1.3c2.4 0 4.5.6 6.5 1.8s3.5 3 4.7 5.3 1.7 5.1 1.7 8.3c0 2.4-.3 4.5-1 6.5-.6 2-1.6 3.6-2.7 5s-2.5 2.4-4.1 3.1-3.3 1.1-5.1 1.1c-2.2 0-4-.5-5.5-1.3-1.4-.9-2.9-2.1-4.2-3.9v11.5c0 3.4-1.2 5-3.6 5-1.4 0-2.4-.5-2.8-1.3s-.7-2.1-.7-3.8V20c0-1.4.3-2.5.9-3.2s1.5-1.1 2.6-1.1 2 .3 2.7 1.1c.5.8.8 1.9.8 3.3h0 0 0 0zm15 11.1c0-2-.3-3.8-.9-5.2s-1.4-2.5-2.5-3.4c-1.1-.8-2.3-1.2-3.6-1.2-2.1 0-3.9.8-5.3 2.5s-2.2 4.1-2.2 7.3c0 3.1.7 5.4 2.1 7.1s3.2 2.5 5.4 2.5c1.3 0 2.4-.3 3.5-1.1s2-1.9 2.6-3.3c.6-1.2.9-3.1.9-5.2h0 0zm49.3 2.1c0 1.3-.3 2.7-1 4.2-.6 1.5-1.7 3-3.1 4.5s-3.1 2.7-5.3 3.6c-2.1.9-4.6 1.4-7.5 1.4-2.1 0-4.2-.2-5.9-.6-1.8-.4-3.4-1-4.9-1.9-1.4-.9-2.8-2-4-3.4-1.1-1.3-2-2.7-2.8-4.3s-1.3-3.4-1.7-5.1c-.4-1.8-.6-3.8-.6-5.8 0-3.3.5-6.2 1.4-8.9 1-2.6 2.3-4.9 4.1-6.7 1.8-1.9 3.9-3.3 6.3-4.2 2.4-1 5-1.4 7.7-1.4 3.3 0 6.3.6 8.9 2s4.6 2.9 6 4.9 2.1 3.8 2.1 5.6c0 .9-.3 1.8-1 2.5-.6.7-1.5 1.1-2.4 1.1-1 0-1.9-.2-2.4-.8-.5-.5-1.1-1.4-1.8-2.6-1.1-2-2.4-3.6-3.8-4.6s-3.3-1.5-5.4-1.5c-3.4 0-6.1 1.3-8.2 3.9s-3.1 6.3-3.1 11c0 3.2.5 5.8 1.3 8 .9 2.1 2.1 3.7 3.8 4.7 1.6 1 3.6 1.6 5.8 1.6 2.4 0 4.4-.6 6.1-1.8s2.9-2.9 3.8-5.2c.3-1 .7-1.9 1.3-2.7.5-.7 1.4-1 2.5-1 1 0 1.9.3 2.5 1 1 .5 1.3 1.4 1.3 2.5h0 0 0zm26.4 9.3c-1.9 1.4-3.6 2.5-5.4 3.2-1.7.7-3.6 1.1-5.8 1.1-2 0-3.7-.4-5.1-1.2-1.4-.7-2.5-1.8-3.4-3.1-.8-1.3-1.2-2.8-1.2-4.3 0-2.1.6-3.9 2-5.4 1.3-1.5 3.1-2.5 5.4-2.9l3.6-.8 5-1.1c1.4-.3 2.8-.8 4.5-1.2-.1-2-.5-3.5-1.2-4.5s-2.2-1.4-4.5-1.4c-2 0-3.4.3-4.4.8s-1.8 1.3-2.5 2.4l-1.5 2.1s-.9.5-1.9.5c-.9 0-1.6-.3-2.3-.8-.6-.6-.9-1.3-.9-2.1 0-1.3.5-2.7 1.4-3.9s2.4-2.3 4.5-3.1 4.5-1.2 7.5-1.2c3.4 0 6 .4 7.9 1.2s3.3 2 4 3.8c.8 1.7 1.2 4 1.2 6.8v4.6l-.1 4.2c0 1.4.2 2.9.7 4.5s.7 2.5.7 3c0 .8-.3 1.5-1.1 2.1s-1.6 1-2.5 1c-.8 0-1.6-.3-2.3-1.1-.7-.7-1.5-1.8-2.3-3.2h0 0 0 0zm-.6-11.1c-1.1.4-2.8.9-4.9 1.3l-4.5 1c-.8.2-1.6.6-2.4 1.3s-1.1 1.5-1.1 2.6c0 1.2.5 2.1 1.3 2.9.9.8 2 1.2 3.5 1.2s2.9-.3 4.2-1c1.2-.5 2.1-1.4 2.8-2.5.7-1.2 1-3.1 1-5.7l.1-1.1h0 0 0 0zm42.7 5.9c0 .9-.3 2-.9 3.1s-1.4 2.1-2.6 3.1-2.7 1.8-4.4 2.4c-1.8.6-3.8.9-6 .9-4.7 0-8.4-1.4-11-4.1-2.7-2.8-4-6.4-4-11.1 0-3.1.6-5.9 1.8-8.3s2.9-4.3 5.3-5.6c2.3-1.3 5-2 8.2-2 2 0 3.8.3 5.4.9s3.1 1.3 4.2 2.3c1.2.9 2 1.9 2.7 2.9.6 1 .9 2 .9 2.9s-.3 1.7-1 2.3-1.5.9-2.5.9c-.6 0-1.2-.2-1.6-.5s-.9-.9-1.4-1.6c-.9-1.4-1.9-2.5-2.9-3.2s-2.3-1-3.9-1c-2.3 0-4.1.9-5.4 2.7s-2.1 4.2-2.1 7.2c0 1.4.2 2.8.5 4 .3 1.1.8 2.2 1.6 3.1.7.8 1.5 1.5 2.4 1.9.9.5 2 .6 3.1.6 1.5 0 2.8-.3 3.9-1s2.1-1.8 2.9-3.2c.4-.8.9-1.4 1.5-2 .5-.5 1.2-.8 2-.8.9 0 1.7.3 2.3 1s1 1.5 1 2.2h0 0 0 0zm12.8-28.3v11.3c1-1.1 1.9-2 2.8-2.7.9-.6 2-1.2 3.1-1.4 1.2-.3 2.4-.5 3.6-.5 2 0 3.6.4 5.1 1.2s2.7 2 3.5 3.6c.5 1 .9 2 1.1 3.1.2 1.2.3 2.4.3 3.9v14.6c0 1.5-.3 2.7-1 3.5s-1.6 1.2-2.8 1.2c-2.5 0-3.8-1.6-3.8-4.6v-13c0-2.4-.3-4.3-1.1-5.7-.8-1.3-2.1-2-4.2-2-1.4 0-2.6.4-3.7 1.2s-1.9 1.9-2.4 3.2c-.4 1.2-.6 3.2-.6 6.1v10.1c0 1.5-.3 2.7-1 3.5s-1.6 1.2-2.8 1.2c-2.5 0-3.8-1.6-3.8-4.6V9.1c0-1.6.3-2.7 1-3.5.6-.8 1.6-1.2 2.8-1.2s2.1.4 2.8 1.2 1.1 1.9 1.1 3.5h0 0zm48.5 24.2h-15c0 1.7.3 3.3 1 4.6s1.6 2.3 2.7 3c1.2.7 2.4 1 3.8 1 .9 0 1.7-.1 2.5-.3s1.5-.6 2.2-1l2-1.4 2.3-2.1c.4-.3.9-.5 1.7-.5s1.4.2 1.9.6.8 1 .8 1.8c0 .7-.3 1.5-.8 2.4s-1.3 1.8-2.4 2.7-2.5 1.6-4.1 2.1c-1.6.6-3.5.9-5.7.9-4.9 0-8.7-1.4-11.5-4.2-2.7-2.8-4.1-6.6-4.1-11.4 0-2.3.3-4.3 1-6.3.6-2 1.7-3.6 2.9-5s2.9-2.4 4.7-3.2c1.9-.8 4-1.1 6.3-1.1 3 0 5.6.6 7.7 1.9s3.8 2.9 4.8 4.9 1.6 4 1.6 6.1c0 1.9-.6 3.2-1.7 3.8-1.1.4-2.6.7-4.6.7h0 0 0 0zm-15-4.4H326c-.2-2.6-.9-4.6-2.1-5.8-1.2-1.3-2.8-2-4.9-2-1.9 0-3.5.6-4.7 2s-1.9 3.2-2.2 5.8zm54.5 12.7l-2-5.1H348l-2 5.3c-.8 2.1-1.4 3.5-2 4.2-.5.7-1.4 1.1-2.7 1.1-1 0-2-.4-2.8-1.2s-1.2-1.6-1.2-2.6c0-.6.1-1.2.3-1.7.2-.6.5-1.4.9-2.5L349 12.4l1.1-2.8c.5-1.1.9-2 1.3-2.7.5-.7 1.1-1.3 1.9-1.7.8-.5 1.7-.6 2.9-.6s2.1.2 2.9.6c.8.5 1.4 1 1.9 1.7s.9 1.4 1.2 2.3l1.3 3.2 10.8 26.5c.9 2 1.3 3.5 1.3 4.4s-.4 1.9-1.2 2.6c-.8.8-1.7 1.2-2.9 1.2-.6 0-1.2-.1-1.7-.3s-.9-.6-1.2-.9c-.3-.4-.6-1-1-1.9l-1-2.4h0 0 0 0zm-16.4-11.5h12.3l-6.2-16.9-6.1 16.9h0 0zM402 42.6v-.8c-.9 1.1-1.9 2.1-3.1 2.9-1 .8-2.1 1.3-3.2 1.7-1.2.4-2.4.6-3.8.6a11.25 11.25 0 0 1-5.1-1.2c-1.6-.8-2.9-1.9-4-3.3-1.2-1.4-2-3.1-2.6-5.1s-.9-4-.9-6.3c0-4.8 1.2-8.5 3.5-11.2s5.4-4 9.2-4c2.2 0 4 .4 5.6 1.2 1.5.8 3 1.9 4.5 3.5V9.3c0-1.6.3-2.8.9-3.6s1.5-1.2 2.7-1.2 2 .3 2.7 1.1.9 1.9.9 3.2v33.7c0 1.4-.3 2.5-1 3.3s-1.6 1.1-2.6 1.1-1.9-.4-2.6-1.2-1.1-1.7-1.1-3.1h0 0zm-15-11.3c0 2.1.3 3.8 1 5.3.6 1.4 1.5 2.5 2.7 3.3 1.1.8 2.4 1.1 3.6 1.1 1.3 0 2.5-.3 3.7-1 1.1-.7 2-1.8 2.7-3.2.6-1.4 1-3.2 1-5.4 0-2-.3-3.8-1-5.3-.6-1.4-1.6-2.6-2.7-3.4-1.2-.8-2.4-1.2-3.7-1.2-1.4 0-2.7.4-3.8 1.2-1.2.8-2.1 2-2.5 3.4-.7 1.7-1 3.4-1 5.2h0 0 0 0zm55.4.6v10.2c0 1.6-.3 2.8-1.1 3.6s-1.7 1.2-2.9 1.2-2.1-.4-2.8-1.2-1.1-2-1.1-3.6V29.9l-.2-4.5c-.1-1.1-.5-2-1-2.6s-1.5-1-2.7-1c-2.5 0-4.2.9-5 2.6s-1.2 4.2-1.2 7.4v10.4c0 1.6-.3 2.8-1.1 3.6-.7.8-1.7 1.2-2.8 1.2s-2.1-.4-2.8-1.2c-.8-.8-1.1-2-1.1-3.6v-22c0-1.4.3-2.5 1-3.3.6-.8 1.6-1.1 2.6-1.1s1.9.3 2.6 1 1 1.7 1 2.9v.8c1.3-1.6 2.7-2.8 4.3-3.5 1.5-.8 3.2-1.1 5-1.1 1.9 0 3.6.4 5 1.2s2.5 1.9 3.4 3.5c1.3-1.6 2.7-2.7 4.2-3.5s3.2-1.2 4.9-1.2c2.1 0 3.9.4 5.4 1.2s2.7 2 3.4 3.5c.6 1.4 1 3.6 1 6.5V42c0 1.6-.3 2.8-1.1 3.6s-1.7 1.2-2.9 1.2-2.1-.4-2.8-1.2c-.8-.8-1.1-2-1.1-3.6V29.2c0-1.3-.1-2.6-.2-3.9-.1-1-.5-1.8-1.2-2.5-.6-.7-1.6-1-2.8-1a5.21 5.21 0 0 0-2.9.9 6.11 6.11 0 0 0-2.1 2.4c-.6 1.2-.9 3.5-.9 6.8h0 0 0 0zm29.2-19.6c-1 0-2-.3-2.7-1-.8-.6-1.2-1.6-1.2-2.8 0-1 .4-2 1.2-2.7.7-.7 1.7-1 2.7-1s1.9.3 2.7.9 1.2 1.6 1.2 2.8-.3 2.1-1.1 2.8c-.9.6-1.7 1-2.8 1h0 0 0zm3.8 7.9v22.1c0 1.5-.3 2.7-1.1 3.5s-1.7 1.2-2.8 1.2-2-.4-2.7-1.2-1-2-1-3.5V20.4c0-1.5.3-2.7 1-3.4.7-.8 1.6-1.2 2.7-1.2s2 .4 2.8 1.2c.7.7 1.1 1.8 1.1 3.2zm14.9-.1v.9c1.3-1.8 2.8-3.1 4.4-3.9 1.6-.9 3.4-1.3 5.5-1.3 2 0 3.8.5 5.4 1.3 1.6.9 2.8 2.1 3.6 3.7.5.9.8 2 1 3 .2 1.1.2 2.5.2 4.2v14.2c0 1.5-.3 2.7-1 3.5s-1.6 1.2-2.7 1.2c-1.2 0-2.1-.4-2.8-1.2s-1-2-1-3.5V29.4c0-2.5-.3-4.5-1-5.8s-2.1-2-4.2-2c-1.3 0-2.7.4-3.7 1.2-1.2.8-2.1 2-2.5 3.4-.3 1.2-.6 3.3-.6 6.4v9.6c0 1.6-.3 2.7-1.1 3.5-.7.8-1.7 1.2-2.8 1.2s-2-.4-2.7-1.2-1-2-1-3.5V20c0-1.4.3-2.5.9-3.2s1.5-1.1 2.6-1.1c.7 0 1.3.2 1.8.5s1 .8 1.3 1.4c.3.8.4 1.7.4 2.5h0 0 0 0z"/>
</svg>
