<svg xmlns="http://www.w3.org/2000/svg" fill="currentColor" viewBox="0 0 16 16">
    <path d="M12.9 16H8c-1.4 0-2.5-1.1-2.5-2.5v-3.1a.65.65 0 0 1 .6-.6.65.65 0 0 1 .6.6v3.1c0 .7.6 1.2 1.2 1.2h4.9c.7 0 1.2-.6 1.2-1.2v-11c0-.7-.6-1.2-1.2-1.2H7.9c-.7 0-1.2.6-1.2 1.2v3.1a.65.65 0 0 1-.6.6.65.65 0 0 1-.6-.6V2.5C5.5 1.1 6.6 0 8 0h4.9c1.4 0 2.5 1.1 2.5 2.5v11.1c0 1.4-1.1 2.5-2.5 2.5zm-9.2-4.9c-.2 0-.3 0-.4-.2L.8 8.4s-.1-.1-.1-.2V8v-.2s0-.1.1-.2l2.5-2.5c.2-.2.6-.2.9 0s.2.6 0 .9L2.8 7.4h9a.65.65 0 0 1 .6.6.65.65 0 0 1-.6.6H2.7L4.1 10c.2.2.2.6 0 .9s-.3.2-.4.2z"/>
</svg>
