<svg xmlns="http://www.w3.org/2000/svg" fill="currentColor" viewBox="0 0 16 16">
    <path d="M2.5,0C1.1,0,0,1.1,0,2.5v3C0,6.9,1.1,8,2.5,8h3C6.9,8,8,6.9,8,5.5v-3C8,1.1,6.9,0,5.5,0h-3ZM2.5,1.5h3c.6,0,1,.4,1,1v3c0,.6-.4,1-1,1h-3c-.6,0-1-.4-1-1v-3c0-.6.4-1,1-1ZM10.5,0c-1.4,0-2.5,1.1-2.5,2.5v3C8,6.9,9.1,8,10.5,8h3C14.9,8,16,6.9,16,5.5v-3C16,1.1,14.9,0,13.5,0h-3ZM10.5,1.5h3c.6,0,1,.4,1,1v3c0,.6-.4,1-1,1h-3c-.6,0-1-.4-1-1v-3c0-.6.4-1,1-1ZM2.5,8C1.1,8,0,9.1,0,10.5v3C0,14.9,1.1,16,2.5,16h3C6.9,16,8,14.9,8,13.5v-3C8,9.1,6.9,8,5.5,8h-3ZM2.5,9.5h3c.6,0,1,.4,1,1v3c0,.6-.4,1-1,1h-3c-.6,0-1-.4-1-1v-3c0-.6.4-1,1-1ZM10.5,8c-1.4,0-2.5,1.1-2.5,2.5v3c0,1.4,1.1,2.5,2.5,2.5h3c1.4,0,2.5-1.1,2.5-2.5v-3c0-1.4-1.1-2.5-2.5-2.5h-3ZM10.5,9.5h3c.6,0,1,.4,1,1v3c0,.6-.4,1-1,1h-3c-.6,0-1-.4-1-1v-3c0-.6.4-1,1-1Z"/>
</svg>

