<svg xmlns="http://www.w3.org/2000/svg" fill="currentColor" viewBox="0 0 16 16">
    <path d="M7.7 7.8c-2.8 0-5.8-.9-5.8-2.3V4.3c1.1 1 3.3 1.6 5.8 1.6s4.8-.6 5.8-1.6v.9h.7V3c0-1.7-2.9-3-6.5-3S1.2 1.3 1.2 3v8.5c0 1.7 2.9 3 6.5 3v-.7c-2.8 0-5.8-.9-5.8-2.3V9.8c1.1 1 3.3 1.6 5.8 1.6v-.7c-2.8 0-5.8-.9-5.8-2.3V6.9c1.1 1 3.3 1.6 5.8 1.6h1v-.7h-1zm0-7.1c2.7 0 5.8.9 5.8 2.3h0 0c0 1.3-3.1 2.3-5.8 2.3S1.9 4.3 1.9 3 4.9.7 7.7.7zm7.1 9.6a.55.55 0 0 0-.5-.3h-1.2V5.9l-4.1 5c-.1.2-.2.4-.1.6a.55.55 0 0 0 .5.3h1.2V16l4.1-5c.1-.2.2-.4.1-.7zM11.3 14v-2.8H9.7l2.6-3.3v2.8H14L11.3 14z"/>
</svg>
