<svg xmlns="http://www.w3.org/2000/svg" fill="currentColor" viewBox="0 0 16 16">
    <path d="M16 9.5h0v1.6c0 .2-.2.3-.6.6l-6.2 2.8c-1 .5-1.5.5-2.3.1S1.5 12.3.6 11.9c-.4-.2-.6-.4-.6-.5V9.7c0 .2.2.3.6.5.8.4 5.6 2.3 6.3 2.7s1.3.4 2.2-.1 5.4-2.3 6.2-2.8c.5-.1.7-.3.7-.5zM0 6V4.4h0c0-.2.2-.3.6-.5l6.5-2.5c1-.4 1.3-.4 2.2-.1s5.2 2.1 6.1 2.4c.4.2.6.3.6.5h0v1.6c0 .2-.2.3-.6.6L9.2 9.2c-1 .4-1.6.4-2.3 0S1.4 7 .6 6.6C.2 6.3 0 6.2 0 6zm9.4-.9l-3.7.6 2.6 1.1c0 0 1.1-1.7 1.1-1.7zm2.3-1.8l-2.4 1 2.2.9.2-.1 2.2-.9-2.2-.9zm-5.4-.2l1.6.1.5.8.3-.7 1.4-.1L9 2.8l.3-.7-1 .3L7.1 2l.4.7c0-.1-1.2.4-1.2.4zM2.7 4.3c0 .4.9.8 2 .8s2-.3 2-.8-.9-.8-2-.8-2 .4-2 .8zm12.7 3.1l-6.2 2.8c-.9.5-1.5.5-2.2.1S1.5 8.1.6 7.7c-.4-.3-.6-.4-.6-.6v1.6c0 .2.2.3.6.5.8.4 5.6 2.3 6.3 2.7s1.3.4 2.2-.1 5.4-2.3 6.2-2.8c.5-.2.7-.3.7-.5V6.9h0c0 .1-.2.3-.6.5z"/>
</svg>
