<svg xmlns="http://www.w3.org/2000/svg" fill="currentColor" viewBox="0 0 16 16">
    <path d="M2 0a.94.94 0 0 1 1 1v2.1C5.7.3 10.1.3 12.9 3c.8.7 1.3 1.7 1.7 2.7.2.5-.1 1.1-.6 1.3s-1.1-.1-1.3-.6v-.1c-.9-2.6-3.8-4-6.4-3-.9.3-1.7.9-2.3 1.7h3a.94.94 0 0 1 1 1 .94.94 0 0 1-1 1H2a.94.94 0 0 1-1-1V1a.94.94 0 0 1 1-1zm0 9.1c.5-.2 1.1.1 1.3.6.9 2.6 3.8 4 6.4 3 .9-.3 1.7-.9 2.3-1.7H9a.94.94 0 0 1-1-1 .94.94 0 0 1 1-1h5a.94.94 0 0 1 1 1v5a.94.94 0 0 1-1 1 .94.94 0 0 1-1-1v-2.1c-2.7 2.8-7.1 2.8-9.9.1-.8-.7-1.3-1.7-1.7-2.7-.2-.5.1-1.1.6-1.2h0z"/>
</svg>
