<svg xmlns="http://www.w3.org/2000/svg" fill="currentColor" viewBox="0 0 16 16">
    <path d="M14 10a.94.94 0 0 1 1 1v1a.94.94 0 0 1-1 1H2a.94.94 0 0 1-1-1v-1a.94.94 0 0 1 1-1h12zM2 9c-1.1 0-2 .9-2 2v1c0 1.1.9 2 2 2h12c1.1 0 2-.9 2-2v-1c0-1.1-.9-2-2-2H2zm3 2.5a.47.47 0 0 1-.5.5.47.47 0 0 1-.5-.5.47.47 0 0 1 .5-.5.47.47 0 0 1 .5.5zm-2 0a.47.47 0 0 1-.5.5.47.47 0 0 1-.5-.5.47.47 0 0 1 .5-.5.47.47 0 0 1 .5.5zM14 3a.94.94 0 0 1 1 1v1a.94.94 0 0 1-1 1H2a.94.94 0 0 1-1-1V4a.94.94 0 0 1 1-1h12zM2 2C.9 2 0 2.9 0 4v1c0 1.1.9 2 2 2h12c1.1 0 2-.9 2-2V4c0-1.1-.9-2-2-2H2zm3 2.5a.47.47 0 0 1-.5.5.47.47 0 0 1-.5-.5.47.47 0 0 1 .5-.5.47.47 0 0 1 .5.5zm-2 0a.47.47 0 0 1-.5.5.47.47 0 0 1-.5-.5.47.47 0 0 1 .5-.5.47.47 0 0 1 .5.5z"/>
</svg>
