<svg xmlns="http://www.w3.org/2000/svg" fill="currentColor" viewBox="0 0 16 16">
    <path d="M14.7,1.7H1.4c-.8,0-1.4.6-1.4,1.4v9.8c0,.8.6,1.4,1.4,1.4h13.2c.8,0,1.4-.6,1.4-1.4V3.1c0-.8-.6-1.4-1.4-1.4h.1ZM1.4,13.2c-.2,0-.3-.1-.3-.3v-1.1c0-.2.1-.3.3-.3h13.2c.2,0,.3.1.3.3v1.1c0,.2-.1.3-.3.3H1.4ZM14.7,5.7c.2,0,.3.1.3.3v1.1c0,.2-.1.3-.3.3H1.4c-.2,0-.3-.1-.3-.3v-1.1c0-.2.1-.3.3-.3h13.3ZM14.9,10.1c0,.2,0,.3-.2.3H1.4c-.2,0-.3-.1-.3-.3v-1.1c0-.2.1-.3.3-.3h13.2c.2,0,.3.1.3.3v1.1h0ZM1.4,2.9h13.2c.2,0,.3.1.3.3v1.1c0,.2-.1.3-.3.3H1.4c-.2,0-.3-.1-.3-.3v-1.1c0-.2.1-.3.3-.3Z"/>
</svg>
