<svg xmlns="http://www.w3.org/2000/svg" fill="currentColor" viewBox="0 0 16 16">
    <path d="M11.3 16H4.7a2.4 2.4 0 0 1-2.4-2.2l-.6-9h-.1c-.4 0-.8-.4-.8-.8s.4-.8.8-.8h.8 2.4V1.6A1.58 1.58 0 0 1 6.4 0h3.2a1.58 1.58 0 0 1 1.6 1.6v1.6h2.4.8c.4 0 .8.4.8.8s-.4.8-.8.8h-.1l-.6 9a2.4 2.4 0 0 1-2.4 2.2zm-8-11.2l.6 8.9c0 .4.4.7.8.7h6.6c.4 0 .8-.3.8-.7l.6-8.9H3.3zm3.1-1.6h3.2V1.6H6.4v1.6zm3.2 9.6c-.4 0-.8-.4-.8-.8V7.2c0-.4.4-.8.8-.8s.8.4.8.8V12c0 .4-.4.8-.8.8zm-3.2 0c-.4 0-.8-.4-.8-.8V7.2c0-.4.4-.8.8-.8s.8.4.8.8V12c0 .4-.4.8-.8.8z"/>
</svg>
