<svg xmlns="http://www.w3.org/2000/svg" fill="currentColor" viewBox="0 0 16 16">
    <path d="M11.2,9.8h1.4c.9,0,1.7-.8,1.7-1.7v-1.4c0-.9-.8-1.7-1.7-1.7h-1.4c-.9,0-1.7.8-1.7,1.7h-4.8v-1.9h0c.9,0,1.7-.8,1.7-1.7v-1.4C6.4.8,5.6,0,4.7,0h-1.4C2.4,0,1.6.8,1.6,1.7v1.4c0,.9.8,1.7,1.7,1.7h0v8c0,.8.7,1.5,1.6,1.5h4.6c0,.9.8,1.7,1.7,1.7h1.4c.9,0,1.7-.8,1.7-1.7v-1.4c0-.9-.8-1.7-1.7-1.7h-1.4c-.9,0-1.7.8-1.7,1.7h-4.6c0,0-.2,0-.2-.2v-4.7h4.8c0,1,.8,1.8,1.7,1.8h0ZM3,3.1v-1.4c0-.2,0-.3.3-.3h1.4c.2,0,.3.1.3.3v1.4c0,.2,0,.3-.3.3h-1.4c-.2,0-.3,0-.3-.3ZM10.9,12.9c0-.2.1-.3.3-.3h1.4c.2,0,.3.1.3.3v1.4c0,.2-.1.3-.3.3h-1.4c-.2,0-.3-.1-.3-.3v-1.4ZM10.9,6.7c0-.2.1-.3.3-.3h1.4c.2,0,.3,0,.3.3v1.4c0,.2-.1.3-.3.3h-1.4c-.2,0-.3-.1-.3-.3,0,0,0-1.4,0-1.4Z"/>
</svg>
